<svg aria-hidden="true" style="width:0;height:0;position:absolute;overflow:hidden" xmlns="http://www.w3.org/2000/svg"><defs><symbol id="sunrise" viewBox="0 0 32 32"><path fill="#ff6b09" style="fill:var(--color1,#ff6b09)" d="M16 5.103c.518 0 .937-.42.937-.938V.937a.938.938 0 1 0-1.875 0v3.228c0 .518.42.938.938.938zM31.063 15.063h-3.228a.937.937 0 0 0 0 1.875h3.228a.937.937 0 1 0 0-1.875zM5.103 16a.938.938 0 0 0-.938-.938H.937a.938.938 0 0 0 0 1.875h3.228c.518 0 .938-.42.938-.937zM24.368 8.569c.24 0 .48-.092.663-.275l2.282-2.282a.938.938 0 0 0-1.326-1.326l-2.282 2.282a.938.938 0 0 0 .663 1.601zM25.031 23.705a.938.938 0 0 0-1.326 1.326l2.282 2.282a.935.935 0 0 0 1.326 0 .938.938 0 0 0 0-1.326l-2.282-2.282zM6.969 23.705l-2.282 2.282a.938.938 0 0 0 1.326 1.326l2.282-2.282a.938.938 0 0 0-1.326-1.326zM6.969 8.294a.935.935 0 0 0 1.326 0 .938.938 0 0 0 0-1.326L6.013 4.686a.938.938 0 0 0-1.326 1.326l2.282 2.282zM20.182 5.937a.936.936 0 0 0 1.226-.506l1.239-2.981a.938.938 0 0 0-1.731-.72l-1.239 2.981a.937.937 0 0 0 .506 1.225zM30.269 20.915l-2.98-1.239a.937.937 0 1 0-.719 1.731l2.98 1.239a.936.936 0 1 0 .72-1.731zM11.818 26.063a.938.938 0 0 0-1.226.506l-1.239 2.98a.937.937 0 1 0 1.731.719l1.239-2.98a.937.937 0 0 0-.506-1.225zM1.731 11.085l2.98 1.239a.938.938 0 0 0 .719-1.732L2.449 9.353a.938.938 0 0 0-.72 1.732zM26.073 11.841a.937.937 0 0 0 1.224.509l2.983-1.232a.938.938 0 0 0-.715-1.733l-2.984 1.232a.938.938 0 0 0-.509 1.224zM21.383 26.582a.938.938 0 0 0-1.733.715l1.232 2.983a.937.937 0 1 0 1.733-.715l-1.232-2.983zM5.927 20.159a.938.938 0 0 0-1.224-.509L1.72 20.882a.938.938 0 0 0 .715 1.733l2.983-1.232a.938.938 0 0 0 .509-1.224zM10.617 5.419a.937.937 0 1 0 1.733-.715l-1.232-2.983a.938.938 0 0 0-1.733.715l1.232 2.983z"/><path fill="#ff6b09" style="fill:var(--color1,#ff6b09)" d="M16.937 24.637c4.351-.469 7.75-4.163 7.75-8.637 0-4.79-3.897-8.688-8.688-8.688S7.311 11.209 7.311 16c0 4.473 3.399 8.168 7.75 8.637v6.426a.937.937 0 0 0 1.875 0v-6.426zM9.188 16c0-3.756 3.056-6.813 6.813-6.813s6.812 3.056 6.812 6.813c0 3.438-2.561 6.289-5.875 6.748V19.17l.212.212a.938.938 0 0 0 1.326-1.326l-1.817-1.817a.937.937 0 0 0-1.316-.009l-1.875 1.821a.938.938 0 0 0 1.306 1.345l.289-.281v3.633c-3.314-.458-5.875-3.31-5.875-6.748z"/></symbol><symbol id="sunset" viewBox="0 0 32 32"><path fill="#ff6b09" style="fill:var(--color1,#ff6b09)" d="M16 5.103c.518 0 .937-.42.937-.938V.937a.938.938 0 1 0-1.875 0v3.228c0 .518.42.938.938.938zM31.063 15.063h-3.228a.937.937 0 0 0 0 1.875h3.228a.937.937 0 1 0 0-1.875zM5.103 16a.938.938 0 0 0-.938-.938H.937a.938.938 0 0 0 0 1.875h3.228c.518 0 .938-.42.938-.937zM24.368 8.569c.24 0 .48-.092.663-.275l2.282-2.282a.938.938 0 0 0-1.326-1.326l-2.282 2.282a.938.938 0 0 0 .663 1.601zM25.031 23.705a.938.938 0 0 0-1.326 1.326l2.282 2.282a.935.935 0 0 0 1.326 0 .938.938 0 0 0 0-1.326l-2.282-2.282zM6.969 23.705l-2.282 2.282a.938.938 0 0 0 1.326 1.326l2.282-2.282a.938.938 0 0 0-1.326-1.326zM6.969 8.294a.935.935 0 0 0 1.326 0 .938.938 0 0 0 0-1.326L6.013 4.686a.938.938 0 0 0-1.326 1.326l2.282 2.282zM20.182 5.937a.936.936 0 0 0 1.226-.506l1.239-2.981a.938.938 0 0 0-1.731-.72l-1.239 2.981a.937.937 0 0 0 .506 1.225zM30.269 20.915l-2.98-1.239a.938.938 0 0 0-.72 1.731l2.981 1.239a.937.937 0 1 0 .719-1.732zM11.818 26.063a.938.938 0 0 0-1.226.506l-1.239 2.98a.938.938 0 0 0 1.731.72l1.239-2.98a.937.937 0 0 0-.506-1.225zM1.731 11.085l2.981 1.239a.938.938 0 0 0 .719-1.732L2.45 9.353a.938.938 0 0 0-.72 1.732zM26.073 11.841a.937.937 0 0 0 1.224.509l2.983-1.232a.938.938 0 0 0-.715-1.733l-2.983 1.232a.938.938 0 0 0-.509 1.224zM21.383 26.582a.938.938 0 0 0-1.733.715l1.232 2.984a.937.937 0 1 0 1.733-.715l-1.232-2.983zM5.927 20.158a.938.938 0 0 0-1.224-.509L1.72 20.881a.938.938 0 0 0 .715 1.733l2.983-1.232a.938.938 0 0 0 .509-1.224zM10.617 5.419a.937.937 0 1 0 1.733-.715l-1.232-2.983a.938.938 0 0 0-1.733.715l1.232 2.983z"/><path fill="#ff6b09" style="fill:var(--color1,#ff6b09)" d="m17.15 28.582-.212.212v-4.158c4.351-.469 7.75-4.163 7.75-8.637 0-4.79-3.897-8.688-8.688-8.688s-8.688 3.897-8.688 8.688c0 4.473 3.399 8.168 7.75 8.637v4.213l-.289-.281a.938.938 0 0 0-1.307 1.345l1.875 1.822a.934.934 0 0 0 1.316-.01l1.817-1.817a.938.938 0 0 0-1.326-1.326zM9.188 16c0-3.756 3.056-6.812 6.813-6.812s6.812 3.056 6.812 6.812c0 3.438-2.561 6.289-5.875 6.748v-2.225a.937.937 0 1 0-1.875 0v2.225C11.749 22.29 9.188 19.439 9.188 16z"/></symbol><symbol id="line1" viewBox="0 0 3 32"><path fill="none" opacity=".4" stroke="#fff" style="stroke:var(--color1,#fff)" stroke-width="1.454" d="M1.455 0v32"/></symbol><symbol id="cloudy" viewBox="0 0 35 35"><path fill="#eee1dc" style="fill:var(--color1,#eee1dc)" d="M26.888 20.96c-3.317 0-11.015-2.423-14.428-5.445-1.259-1.114-1.897-2.262-1.897-3.411a4.63 4.63 0 0 1 5.908-4.444 4.62 4.62 0 0 1 4.374-3.114c1.671 0 3.199.909 4.013 2.325a4.63 4.63 0 0 1 4.933 5.494 4.653 4.653 0 0 1 2.21 3.944 4.37 4.37 0 0 1-1.377 3.194c-.81.77-1.923 1.276-3.134 1.424-.179.022-.38.033-.601.033z"/><path fill="#e0d2cd" style="fill:var(--color2,#e0d2cd)" d="M29.79 12.366a4.63 4.63 0 0 0-4.933-5.494 4.647 4.647 0 0 0-3.576-2.304v15.323c2.204.673 4.264 1.07 5.607 1.07.22 0 .421-.011.601-.033 1.211-.148 2.324-.654 3.134-1.424A4.373 4.373 0 0 0 32 16.31a4.654 4.654 0 0 0-2.21-3.944z"/><path fill="#fff4f4" style="fill:var(--color3,#fff4f4)" d="M13.321 27.454a4.7 4.7 0 0 1-4.017-2.272 3.927 3.927 0 0 1-2.042.576 3.933 3.933 0 0 1-3.746-2.77 3.919 3.919 0 0 1 .011-7.795A3.907 3.907 0 0 1 4.6 13.505a3.903 3.903 0 0 1 2.662-1.043c.72 0 1.421.202 2.026.567a4.697 4.697 0 0 1 4.033-2.3 4.697 4.697 0 0 1 4.033 2.3 3.91 3.91 0 0 1 4.688.476 3.91 3.91 0 0 1 1.073 1.689 3.918 3.918 0 0 1 .011 7.795 3.932 3.932 0 0 1-3.746 2.77 3.93 3.93 0 0 1-2.042-.576 4.7 4.7 0 0 1-4.017 2.272z"/><path fill="#f6efea" style="fill:var(--color4,#f6efea)" d="M25.317 16.155a3.922 3.922 0 0 0-2.203-.961 3.91 3.91 0 0 0-1.073-1.689 3.903 3.903 0 0 0-2.662-1.043c-.72 0-1.421.202-2.026.567a4.697 4.697 0 0 0-4.033-2.3v16.725a4.7 4.7 0 0 0 4.017-2.272 3.927 3.927 0 0 0 2.042.576 3.933 3.933 0 0 0 3.746-2.77 3.92 3.92 0 0 0 2.192-6.834z"/></symbol><symbol id="quote" viewBox="0 0 35 32"><defs><filter id="glow"><feGaussianBlur in="SourceAlpha" stdDeviation="2"/><feOffset result="offsetblur"/><feComponentTransfer><feFuncA type="linear" slope=".3"/></feComponentTransfer><feMerge><feMergeNode/><feMergeNode in="SourceGraphic"/></feMerge></filter></defs><path fill="#fff" style="fill:var(--color1,#fff);filter:url(#glow)" opacity=".2" d="M21.593 13.843V0h12.784v10.929c0 5.917-.706 10.2-2.12 12.85-1.855 3.533-4.791 6.204-8.809 8.015l-2.914-4.637c2.429-1.016 4.217-2.539 5.365-4.57 1.148-1.987 1.788-4.901 1.921-8.743h-6.226zm-20.533 0V0h12.784v10.929c0 5.917-.707 10.2-2.12 12.85-1.855 3.533-4.791 6.204-8.809 8.015L.001 27.157c2.429-1.016 4.217-2.539 5.365-4.57 1.148-1.987 1.788-4.901 1.921-8.743H1.061z"/></symbol><symbol id="location" viewBox="0 0 32 32"><path fill="none" stroke="#aeb3b9" style="stroke:var(--color1,#aeb3b9)" stroke-width="2.909" d="M27.636 16c0 6.427-5.21 11.636-11.636 11.636S4.364 22.426 4.364 16C4.364 9.573 9.574 4.364 16 4.364S27.636 9.574 27.636 16z"/><path fill="#aeb3b9" style="fill:var(--color1,#aeb3b9)" d="M14.545 0h2.909v5.818h-2.909V0zM14.545 26.182h2.909V32h-2.909v-5.818zM5.818 14.545v2.909H0v-2.909h5.818zM32 14.545v2.909h-5.818v-2.909H32z"/></symbol><symbol id="star" viewBox="0 0 35 32"><path fill="none" stroke="#7e8691" style="stroke:var(--color1,#7e8691)" stroke-width="1.6" d="m17.6 2.589 3.37 10.372h10.906l-8.823 6.411.18.553 3.191 9.82-8.823-6.411-8.823 6.411 3.37-10.372-8.823-6.411h10.906l3.37-10.372z"/></symbol></defs></svg>