<svg aria-hidden="true" style="position: absolute; width: 0; height: 0; overflow: hidden;" version="1.1" xmlns="http://www.w3.org/2000/svg" xmlns:xlink="http://www.w3.org/1999/xlink">
<defs>
<!-- SVG for temp and weather -->
<symbol id="sunrise" viewBox="0 0 32 32">
<path fill="#ff6b09" style="fill: var(--color1, #ff6b09)" d="M16 5.103c0.518 0 0.937-0.42 0.937-0.938v-3.228c0-0.518-0.42-0.938-0.937-0.938s-0.938 0.42-0.938 0.938v3.228c0 0.518 0.42 0.938 0.938 0.938z"></path>
<path fill="#ff6b09" style="fill: var(--color1, #ff6b09)" d="M31.063 15.063h-3.228c-0.518 0-0.937 0.42-0.937 0.938s0.42 0.937 0.937 0.937h3.228c0.518 0 0.937-0.42 0.937-0.937s-0.42-0.938-0.937-0.938z"></path>
<path fill="#ff6b09" style="fill: var(--color1, #ff6b09)" d="M5.103 16c0-0.518-0.42-0.938-0.938-0.938h-3.228c-0.518 0-0.938 0.42-0.938 0.938s0.42 0.937 0.938 0.937h3.228c0.518 0 0.938-0.42 0.938-0.937z"></path>
<path fill="#ff6b09" style="fill: var(--color1, #ff6b09)" d="M24.368 8.569c0.24 0 0.48-0.092 0.663-0.275l2.282-2.282c0.366-0.366 0.366-0.96 0-1.326s-0.96-0.366-1.326 0l-2.282 2.282c-0.366 0.366-0.366 0.96 0 1.326 0.183 0.183 0.423 0.275 0.663 0.275z"></path>
<path fill="#ff6b09" style="fill: var(--color1, #ff6b09)" d="M25.031 23.705c-0.366-0.366-0.96-0.366-1.326 0s-0.366 0.96 0 1.326l2.282 2.282c0.183 0.183 0.423 0.275 0.663 0.275s0.48-0.092 0.663-0.275c0.366-0.366 0.366-0.96 0-1.326l-2.282-2.282z"></path>
<path fill="#ff6b09" style="fill: var(--color1, #ff6b09)" d="M6.969 23.705l-2.282 2.282c-0.366 0.366-0.366 0.96 0 1.326 0.183 0.183 0.423 0.275 0.663 0.275s0.48-0.092 0.663-0.275l2.282-2.282c0.366-0.366 0.366-0.96 0-1.326s-0.96-0.366-1.326 0z"></path>
<path fill="#ff6b09" style="fill: var(--color1, #ff6b09)" d="M6.969 8.294c0.183 0.183 0.423 0.275 0.663 0.275s0.48-0.092 0.663-0.275c0.366-0.366 0.366-0.96 0-1.326l-2.282-2.282c-0.366-0.366-0.96-0.366-1.326 0s-0.366 0.96 0 1.326l2.282 2.282z"></path>
<path fill="#ff6b09" style="fill: var(--color1, #ff6b09)" d="M20.182 5.937c0.118 0.049 0.24 0.072 0.36 0.072 0.367 0 0.716-0.217 0.866-0.578l1.239-2.981c0.199-0.478-0.028-1.027-0.506-1.226s-1.027 0.028-1.225 0.506l-1.239 2.981c-0.199 0.478 0.028 1.027 0.506 1.225z"></path>
<path fill="#ff6b09" style="fill: var(--color1, #ff6b09)" d="M30.269 20.915l-2.98-1.239c-0.478-0.199-1.027 0.028-1.225 0.506s0.028 1.027 0.506 1.225l2.98 1.239c0.118 0.049 0.24 0.072 0.36 0.072 0.367 0 0.716-0.217 0.866-0.578 0.199-0.478-0.028-1.027-0.506-1.225z"></path>
<path fill="#ff6b09" style="fill: var(--color1, #ff6b09)" d="M11.818 26.063c-0.478-0.199-1.027 0.028-1.226 0.506l-1.239 2.98c-0.199 0.478 0.028 1.027 0.506 1.225 0.118 0.049 0.239 0.072 0.359 0.072 0.367 0 0.716-0.217 0.866-0.578l1.239-2.98c0.199-0.478-0.028-1.027-0.506-1.225z"></path>
<path fill="#ff6b09" style="fill: var(--color1, #ff6b09)" d="M1.731 11.085l2.98 1.239c0.118 0.049 0.239 0.072 0.359 0.072 0.367 0 0.716-0.217 0.866-0.578 0.199-0.478-0.028-1.027-0.506-1.226l-2.981-1.239c-0.478-0.199-1.027 0.028-1.226 0.506s0.028 1.027 0.506 1.226z"></path>
<path fill="#ff6b09" style="fill: var(--color1, #ff6b09)" d="M26.073 11.841c0.149 0.362 0.499 0.58 0.867 0.58 0.119 0 0.24-0.023 0.357-0.071l2.983-1.232c0.479-0.198 0.706-0.746 0.509-1.224s-0.746-0.706-1.224-0.509l-2.984 1.232c-0.479 0.198-0.706 0.746-0.509 1.224z"></path>
<path fill="#ff6b09" style="fill: var(--color1, #ff6b09)" d="M21.383 26.582c-0.198-0.479-0.746-0.706-1.224-0.509s-0.706 0.746-0.509 1.224l1.232 2.983c0.149 0.362 0.499 0.58 0.867 0.58 0.119 0 0.24-0.023 0.357-0.071 0.479-0.198 0.706-0.746 0.509-1.224l-1.232-2.983z"></path>
<path fill="#ff6b09" style="fill: var(--color1, #ff6b09)" d="M5.927 20.159c-0.198-0.479-0.746-0.706-1.224-0.509l-2.983 1.232c-0.479 0.198-0.706 0.746-0.509 1.224 0.149 0.362 0.499 0.58 0.867 0.58 0.119 0 0.24-0.023 0.357-0.071l2.983-1.232c0.479-0.198 0.706-0.746 0.509-1.224z"></path>
<path fill="#ff6b09" style="fill: var(--color1, #ff6b09)" d="M10.617 5.419c0.149 0.362 0.499 0.58 0.867 0.58 0.119 0 0.24-0.023 0.357-0.071 0.479-0.198 0.706-0.746 0.509-1.224l-1.232-2.983c-0.198-0.479-0.746-0.706-1.224-0.509s-0.706 0.746-0.509 1.224l1.232 2.983z"></path>
<path fill="#ff6b09" style="fill: var(--color1, #ff6b09)" d="M16.937 24.637c4.351-0.469 7.75-4.163 7.75-8.637 0-4.79-3.897-8.688-8.688-8.688s-8.688 3.897-8.688 8.688c0 4.473 3.399 8.168 7.75 8.637v6.426c0 0.518 0.42 0.937 0.938 0.937s0.937-0.42 0.937-0.937v-6.426zM9.188 16c0-3.756 3.056-6.813 6.813-6.813s6.812 3.056 6.812 6.813c0 3.438-2.561 6.289-5.875 6.748v-3.578l0.212 0.212c0.366 0.366 0.96 0.366 1.326 0s0.366-0.96 0-1.326l-1.817-1.817c-0.362-0.362-0.949-0.367-1.316-0.009l-1.875 1.821c-0.371 0.361-0.38 0.954-0.019 1.326 0.184 0.189 0.428 0.284 0.672 0.284 0.235 0 0.471-0.088 0.653-0.265l0.289-0.281v3.633c-3.314-0.458-5.875-3.31-5.875-6.748z"></path>
</symbol>

<symbol id="sunset" viewBox="0 0 32 32">
<path fill="#ff6b09" style="fill: var(--color1, #ff6b09)" d="M16 5.103c0.518 0 0.937-0.42 0.937-0.938v-3.228c0-0.518-0.42-0.938-0.937-0.938s-0.938 0.42-0.938 0.938v3.228c0 0.518 0.42 0.938 0.938 0.938z"></path>
<path fill="#ff6b09" style="fill: var(--color1, #ff6b09)" d="M31.063 15.063h-3.228c-0.518 0-0.937 0.42-0.937 0.938s0.42 0.937 0.937 0.937h3.228c0.518 0 0.937-0.42 0.937-0.937s-0.42-0.938-0.937-0.938z"></path>
<path fill="#ff6b09" style="fill: var(--color1, #ff6b09)" d="M5.103 16c0-0.518-0.42-0.938-0.938-0.938h-3.228c-0.518 0-0.938 0.42-0.938 0.938s0.42 0.937 0.938 0.937h3.228c0.518 0 0.938-0.42 0.938-0.937z"></path>
<path fill="#ff6b09" style="fill: var(--color1, #ff6b09)" d="M24.368 8.569c0.24 0 0.48-0.092 0.663-0.275l2.282-2.282c0.366-0.366 0.366-0.96 0-1.326s-0.96-0.366-1.326 0l-2.282 2.282c-0.366 0.366-0.366 0.96 0 1.326 0.183 0.183 0.423 0.275 0.663 0.275z"></path>
<path fill="#ff6b09" style="fill: var(--color1, #ff6b09)" d="M25.031 23.705c-0.366-0.366-0.96-0.366-1.326 0s-0.366 0.96 0 1.326l2.282 2.282c0.183 0.183 0.423 0.275 0.663 0.275s0.48-0.092 0.663-0.275c0.366-0.366 0.366-0.96 0-1.326l-2.282-2.282z"></path>
<path fill="#ff6b09" style="fill: var(--color1, #ff6b09)" d="M6.969 23.705l-2.282 2.282c-0.366 0.366-0.366 0.96 0 1.326 0.183 0.183 0.423 0.275 0.663 0.275s0.48-0.092 0.663-0.275l2.282-2.282c0.366-0.366 0.366-0.96 0-1.326s-0.96-0.366-1.326 0z"></path>
<path fill="#ff6b09" style="fill: var(--color1, #ff6b09)" d="M6.969 8.294c0.183 0.183 0.423 0.275 0.663 0.275s0.48-0.092 0.663-0.275c0.366-0.366 0.366-0.96 0-1.326l-2.282-2.282c-0.366-0.366-0.96-0.366-1.326 0s-0.366 0.96 0 1.326l2.282 2.282z"></path>
<path fill="#ff6b09" style="fill: var(--color1, #ff6b09)" d="M20.182 5.937c0.118 0.049 0.24 0.072 0.36 0.072 0.367 0 0.716-0.217 0.866-0.578l1.239-2.981c0.199-0.478-0.028-1.027-0.506-1.226s-1.027 0.028-1.225 0.506l-1.239 2.981c-0.199 0.478 0.028 1.027 0.506 1.225z"></path>
<path fill="#ff6b09" style="fill: var(--color1, #ff6b09)" d="M30.269 20.915l-2.98-1.239c-0.478-0.199-1.027 0.028-1.226 0.506s0.028 1.027 0.506 1.225l2.981 1.239c0.118 0.049 0.239 0.072 0.359 0.072 0.368 0 0.716-0.217 0.866-0.578 0.199-0.478-0.028-1.027-0.506-1.226z"></path>
<path fill="#ff6b09" style="fill: var(--color1, #ff6b09)" d="M11.818 26.063c-0.478-0.199-1.027 0.028-1.226 0.506l-1.239 2.98c-0.199 0.478 0.028 1.027 0.506 1.226 0.118 0.049 0.239 0.072 0.359 0.072 0.367 0 0.716-0.217 0.866-0.578l1.239-2.98c0.199-0.478-0.028-1.027-0.506-1.225z"></path>
<path fill="#ff6b09" style="fill: var(--color1, #ff6b09)" d="M1.731 11.085l2.981 1.239c0.118 0.049 0.239 0.072 0.359 0.072 0.367 0 0.716-0.217 0.866-0.578 0.199-0.478-0.028-1.027-0.506-1.226l-2.981-1.239c-0.478-0.199-1.027 0.028-1.226 0.506s0.028 1.027 0.506 1.226z"></path>
<path fill="#ff6b09" style="fill: var(--color1, #ff6b09)" d="M26.073 11.841c0.149 0.362 0.499 0.58 0.867 0.58 0.119 0 0.24-0.023 0.357-0.071l2.983-1.232c0.479-0.198 0.706-0.746 0.509-1.224s-0.746-0.706-1.224-0.509l-2.983 1.232c-0.479 0.198-0.706 0.746-0.509 1.224z"></path>
<path fill="#ff6b09" style="fill: var(--color1, #ff6b09)" d="M21.383 26.582c-0.198-0.479-0.746-0.706-1.224-0.509s-0.706 0.746-0.509 1.224l1.232 2.984c0.149 0.362 0.499 0.58 0.867 0.58 0.119 0 0.24-0.023 0.357-0.071 0.479-0.198 0.707-0.746 0.509-1.224l-1.232-2.983z"></path>
<path fill="#ff6b09" style="fill: var(--color1, #ff6b09)" d="M5.927 20.158c-0.198-0.479-0.746-0.706-1.224-0.509l-2.983 1.232c-0.479 0.198-0.706 0.746-0.509 1.224 0.149 0.362 0.499 0.58 0.867 0.58 0.119 0 0.24-0.023 0.357-0.071l2.983-1.232c0.479-0.198 0.706-0.746 0.509-1.224z"></path>
<path fill="#ff6b09" style="fill: var(--color1, #ff6b09)" d="M10.617 5.419c0.149 0.362 0.499 0.58 0.867 0.58 0.119 0 0.24-0.023 0.357-0.071 0.479-0.198 0.706-0.746 0.509-1.224l-1.232-2.983c-0.198-0.479-0.746-0.706-1.224-0.509s-0.706 0.746-0.509 1.224l1.232 2.983z"></path>
<path fill="#ff6b09" style="fill: var(--color1, #ff6b09)" d="M17.15 28.582l-0.212 0.212v-4.158c4.351-0.469 7.75-4.163 7.75-8.637 0-4.79-3.897-8.688-8.688-8.688s-8.688 3.897-8.688 8.688c0 4.473 3.399 8.168 7.75 8.637v4.213l-0.289-0.281c-0.371-0.361-0.965-0.352-1.326 0.019s-0.352 0.965 0.019 1.326l1.875 1.822c0.182 0.177 0.418 0.265 0.653 0.265 0.24 0 0.48-0.092 0.663-0.275l1.817-1.817c0.366-0.366 0.366-0.96 0-1.326s-0.96-0.366-1.326-0zM9.188 16c0-3.756 3.056-6.812 6.813-6.812s6.812 3.056 6.812 6.812c0 3.438-2.561 6.289-5.875 6.748v-2.225c0-0.518-0.42-0.937-0.937-0.937s-0.938 0.42-0.938 0.937v2.225c-3.314-0.458-5.875-3.309-5.875-6.748z"></path>
</symbol>

<symbol id="wind"  viewBox="0 0 35 35">
  <path d="M27.689 2.89124C26.0307 2.89124 24.4052 3.46299 23.1121 4.50117C22.6705 4.85575 22.6 5.50106 22.9544 5.94266C23.309 6.38419 23.9544 6.45488 24.396 6.1003C25.3264 5.35333 26.4959 4.94202 27.689 4.94202C30.5895 4.94202 32.9492 7.30171 32.9492 10.2022C32.9492 13.1027 30.5894 15.4624 27.689 15.4624H8.40808C7.84179 15.4624 7.38269 15.9215 7.38269 16.4878C7.38269 17.0541 7.84179 17.5132 8.40808 17.5132H27.689C31.7203 17.5132 35 14.2335 35 10.2022C35 6.17091 31.7202 2.89124 27.689 2.89124Z" fill="black"/>
  <path d="M6.44373 13.4185H17.3974C17.9638 13.4185 18.4228 12.9594 18.4228 12.3931C18.4228 11.8268 17.9638 11.3677 17.3974 11.3677H6.44373C5.87744 11.3677 5.41833 11.8268 5.41833 12.3931C5.41833 12.9594 5.87744 13.4185 6.44373 13.4185Z" fill="black"/>
  <path d="M17.11 19.5709H1.02539C0.459102 19.5709 0 20.03 0 20.5963C0 21.1626 0.459102 21.6217 1.02539 21.6217H17.11C19.4359 21.6217 21.3283 23.514 21.3283 25.8399C21.3283 28.1658 19.4359 30.0581 17.11 30.0581C16.1532 30.0581 15.2154 29.7282 14.4693 29.1292C14.0278 28.7747 13.3824 28.8452 13.0278 29.2868C12.6732 29.7284 12.7438 30.3738 13.1854 30.7283C14.2943 31.6185 15.6881 32.1088 17.11 32.1088C20.5667 32.1088 23.379 29.2965 23.379 25.8398C23.379 22.3831 20.5667 19.5709 17.11 19.5709Z" fill="black"/>
  <path d="M1.02539 13.4185H2.40864C2.97493 13.4185 3.43403 12.9594 3.43403 12.3931C3.43403 11.8268 2.97493 11.3677 2.40864 11.3677H1.02539C0.459102 11.3677 0 11.8268 0 12.3931C0 12.9594 0.459102 13.4185 1.02539 13.4185Z" fill="black"/>
  <path d="M13.3984 24.6778C13.3984 24.1115 12.9393 23.6524 12.373 23.6524H6.2207C5.65441 23.6524 5.19531 24.1115 5.19531 24.6778C5.19531 25.2441 5.65441 25.7032 6.2207 25.7032H12.373C12.9394 25.7032 13.3984 25.2441 13.3984 24.6778Z" fill="black"/>
</symbol>

<symbol id="humidity"  viewBox="0 0 35 35">
  <g clip-path="url(#clip0_101_63)">
    <path fill-rule="evenodd" clip-rule="evenodd" d="M31.3033 10.2796C30.6508 9.16279 29.9532 8.10691 29.339 7.30635C28.4337 6.12619 27.899 5.70789 27.2957 5.70789C26.7237 5.70789 26.2586 6.10848 25.7362 6.70998C25.3515 7.15288 24.893 7.76702 24.4104 8.48576C23.7186 9.51573 23.0544 10.639 22.4865 11.7289C21.8781 10.5626 21.3094 9.55743 20.8889 8.83781C19.5732 6.58618 18.17 4.46156 16.9377 2.85518C14.9168 0.220665 14.157 0 13.6034 0C13.0499 0 12.2901 0.220665 10.2691 2.85525C9.03681 4.46163 7.63359 6.58625 6.31795 8.83788C4.73686 11.5436 1.05945 18.287 1.05945 22.4561C1.05945 29.3729 6.68668 35.0001 13.6034 35.0001C20.0932 35.0001 25.4475 30.0462 26.0839 23.7213C26.4817 23.7948 26.8866 23.833 27.2957 23.833C30.9596 23.833 33.9404 20.8523 33.9404 17.1883C33.9404 15.1038 32.2883 11.9651 31.3033 10.2796ZM13.6034 32.9492C7.81748 32.9492 3.11024 28.242 3.11024 22.456C3.11024 20.0134 4.85977 15.5019 7.79028 10.3879C10.4061 5.82315 12.7382 2.88799 13.6034 2.1642C14.4687 2.88799 16.8008 5.82308 19.4165 10.3879C22.3471 15.502 24.0966 20.0134 24.0966 22.456C24.0966 28.242 19.3894 32.9492 13.6034 32.9492ZM27.2957 21.7822C26.8898 21.7822 26.4903 21.7291 26.1035 21.6255C25.8776 19.3657 24.8069 16.5568 23.6365 14.0516C24.7768 11.5052 26.4685 8.99599 27.2947 8.03862C27.8166 8.64004 28.7408 9.9075 29.7687 11.7249C31.0968 14.0729 31.8896 16.1153 31.8896 17.1883C31.8896 19.7213 29.8288 21.7822 27.2957 21.7822Z" fill="black"/>
    <path fill-rule="evenodd" clip-rule="evenodd" d="M16.4186 17.5796C15.9281 17.2962 15.3011 17.4645 15.0179 17.9549L10.4128 25.9312C10.1297 26.4217 10.2977 27.0488 10.7881 27.3319C10.9496 27.4251 11.1259 27.4695 11.2998 27.4695C11.6542 27.4695 11.9989 27.2855 12.1888 26.9566L16.7939 18.9803C17.077 18.4898 16.909 17.8627 16.4186 17.5796Z" fill="black"/>
    <path fill-rule="evenodd" clip-rule="evenodd" d="M11.04 19.6191C11.04 19.0543 10.5794 18.5937 10.0146 18.5937C9.44986 18.5937 8.98926 19.0544 8.98926 19.6191C8.98926 20.1839 9.44993 20.6445 10.0146 20.6445C10.5794 20.6445 11.04 20.1839 11.04 19.6191Z" fill="black"/>
    <path fill-rule="evenodd" clip-rule="evenodd" d="M16.8506 24.4041C16.2858 24.4041 15.8252 24.8647 15.8252 25.4295C15.8252 25.9943 16.2859 26.4549 16.8506 26.4549C17.4154 26.4549 17.876 25.9942 17.876 25.4295C17.876 24.8647 17.4153 24.4041 16.8506 24.4041Z" fill="black"/>
  </g>
  <defs>
    <clipPath id="clip0_101_63">
      <rect width="35" height="35" fill="white"/>
    </clipPath>
  </defs>
</symbol>

<symbol id="barometer"  viewBox="0 0 35 35">
  <path d="M20.2221 4.5068C20.4477 4.07914 20.5762 3.59249 20.5762 3.07617C20.5762 1.37997 19.1962 0 17.5 0C15.8038 0 14.4238 1.37997 14.4238 3.07617C14.4238 3.59249 14.5523 4.07914 14.778 4.5068C7.59823 5.79537 2.13269 12.0878 2.13269 19.6327C2.13269 28.1062 9.02646 35 17.5 35C25.9736 35 32.8673 28.1062 32.8673 19.6327C32.8673 12.0878 27.4018 5.79544 20.2221 4.5068ZM17.5 2.05078C18.0654 2.05078 18.5254 2.51077 18.5254 3.07617C18.5254 3.64157 18.0654 4.10156 17.5 4.10156C16.9346 4.10156 16.4746 3.64157 16.4746 3.07617C16.4746 2.51077 16.9346 2.05078 17.5 2.05078ZM17.5 32.9492C10.1573 32.9492 4.18347 26.9754 4.18347 19.6327C4.18347 12.2899 10.1573 6.31613 17.5 6.31613C24.8428 6.31613 30.8166 12.2899 30.8166 19.6327C30.8166 26.9754 24.8428 32.9492 17.5 32.9492Z" fill="black"/>
  <path d="M25.5194 11.692C25.5051 11.6757 25.4912 11.6591 25.4756 11.6435C25.4591 11.627 25.4417 11.6123 25.4244 11.5972C23.3837 9.58453 20.5838 8.33984 17.5 8.33984C14.403 8.33984 11.5935 9.59328 9.55122 11.6192C9.54234 11.6275 9.53297 11.6348 9.52436 11.6435C9.51711 11.6508 9.51103 11.6586 9.50406 11.6659C7.46777 13.7096 6.20715 16.5266 6.20715 19.6327C6.20715 20.199 6.66625 20.6581 7.23254 20.6581H8.39465C8.96094 20.6581 9.42004 20.199 9.42004 19.6327C9.42004 19.0664 8.96094 18.6073 8.39465 18.6073H8.31515C8.51305 16.8229 9.22084 15.1903 10.2894 13.8586L10.3461 13.9154C10.5463 14.1156 10.8088 14.2157 11.0711 14.2157C11.3335 14.2157 11.596 14.1157 11.7961 13.9154C12.1966 13.5149 12.1966 12.8657 11.7961 12.4653L11.7409 12.41C13.0699 11.3482 14.6969 10.6451 16.4746 10.4479V10.5273C16.4746 11.0936 16.9337 11.5527 17.5 11.5527C18.0663 11.5527 18.5254 11.0936 18.5254 10.5273V10.4479C20.3024 10.6452 21.9293 11.3487 23.2583 12.4107L23.2038 12.4652C22.8034 12.8656 22.8034 13.5149 23.2038 13.9153C23.404 14.1155 23.6665 14.2157 23.9288 14.2157C24.1912 14.2157 24.4537 14.1156 24.6539 13.9153L24.7098 13.8593C25.7758 15.1876 26.4831 16.8152 26.6832 18.5938H26.5918C26.0255 18.5938 25.5664 19.0529 25.5664 19.6191C25.5664 20.1854 26.0255 20.6445 26.5918 20.6445C26.5918 20.6445 27.7683 20.6444 27.7688 20.6444C28.3351 20.6436 28.7936 20.1839 28.7928 19.6176C28.7886 16.531 27.5381 13.7305 25.5194 11.692Z" fill="black"/>
  <path d="M22.1499 14.9825C21.7495 14.5821 21.1002 14.5821 20.6998 14.9825L16.4178 19.2645C15.9438 19.038 15.4146 18.9334 14.8786 18.971C14.3137 19.0105 13.8876 19.5004 13.9271 20.0653C13.9665 20.6302 14.456 21.0565 15.0214 21.0168C15.3176 20.996 15.6078 21.1047 15.8178 21.3147C16.0245 21.5214 16.1333 21.8073 16.1164 22.0992C16.0836 22.6645 16.5152 23.1494 17.0806 23.1822C17.1008 23.1835 17.1209 23.184 17.1409 23.184C17.68 23.184 18.132 22.7631 18.1637 22.218C18.194 21.6949 18.0887 21.1786 17.8676 20.7151L22.1499 16.4327C22.5504 16.0322 22.5504 15.383 22.1499 14.9825Z" fill="black"/>
  <path d="M23.3789 27.002H11.6211C11.0548 27.002 10.5957 27.4611 10.5957 28.0273C10.5957 28.5936 11.0548 29.0527 11.6211 29.0527H23.3789C23.9452 29.0527 24.4043 28.5936 24.4043 28.0273C24.4043 27.4611 23.9452 27.002 23.3789 27.002Z" fill="black"/>
</symbol>

<symbol id="weather"  viewBox="0 0 35 35">
  <g clip-path="url(#clip0_103_161)">
    <path d="M17.5 27.7539C11.846 27.7539 7.24609 23.154 7.24609 17.5C7.24609 11.846 11.846 7.24609 17.5 7.24609C18.0663 7.24609 18.5254 7.7052 18.5254 8.27148V26.7285C18.5254 27.2948 18.0663 27.7539 17.5 27.7539Z" fill="#FDBF00"/>
    <path d="M33.9746 16.4747H32.3808L33.162 15.1216C33.4452 14.6311 33.2772 14.0039 32.7867 13.7209C32.2962 13.4376 31.6691 13.6057 31.386 14.0962L30.0128 16.4747H19.9755L27.073 9.37718L29.7258 10.088C29.8147 10.1118 29.904 10.1233 29.9919 10.1233C30.4446 10.1233 30.859 9.82111 30.9817 9.36303C31.1283 8.81602 30.8037 8.2537 30.2567 8.10713L28.7474 7.70272L29.7778 6.67241C30.1782 6.27203 30.1782 5.62275 29.7778 5.2223C29.3774 4.82192 28.7281 4.82192 28.3276 5.2223L27.2973 6.25268L26.8929 4.74344C26.7462 4.19643 26.1842 3.87227 25.637 4.01842C25.0899 4.16505 24.7654 4.72731 24.912 5.27432L25.6228 7.92721L18.5254 15.0246V4.98721L20.9039 3.61401C21.3943 3.33086 21.5624 2.7038 21.2792 2.21333C20.996 1.72278 20.3688 1.55482 19.8785 1.83803L18.5254 2.61924V1.02551C18.5254 0.459224 18.0663 0.00012207 17.5 0.00012207C16.9337 0.00012207 16.4746 0.459224 16.4746 1.02551V33.9746C16.4746 34.5409 16.9337 35 17.5 35C18.0663 35 18.5254 34.5409 18.5254 33.9746V32.3809L19.8785 33.1621C20.04 33.2554 20.2163 33.2997 20.3902 33.2997C20.7446 33.2997 21.0893 33.1158 21.2792 32.7868C21.5624 32.2964 21.3943 31.6692 20.9039 31.3862L18.5254 30.0129V19.9755L25.6228 27.073L24.912 29.7259C24.7654 30.2729 25.0901 30.8352 25.6371 30.9817C25.726 31.0055 25.8152 31.017 25.9031 31.017C26.3558 31.017 26.7702 30.7147 26.8929 30.2567L27.2973 28.7475L28.3276 29.7778C28.5278 29.978 28.7902 30.0782 29.0526 30.0782C29.315 30.0782 29.5775 29.978 29.7776 29.7778C30.1781 29.3774 30.1781 28.7281 29.7776 28.3277L28.7472 27.2973L30.2565 26.8929C30.8036 26.7463 31.1281 26.184 30.9816 25.637C30.8349 25.09 30.2729 24.7654 29.7257 24.9121L27.0728 25.6229L19.9755 18.5254H30.0128L31.386 20.9039C31.5759 21.233 31.9206 21.4168 32.275 21.4168C32.449 21.4168 32.6253 21.3725 32.7867 21.2792C33.2771 20.9961 33.4452 20.369 33.162 19.8785L32.3809 18.5254H33.9746C34.5409 18.5254 35 18.0663 35 17.5001C35 16.9338 34.5409 16.4747 33.9746 16.4747Z" fill="#7DD5F4"/>
    <path d="M4.31033 18.5254H1.02539C0.459102 18.5254 0 18.0663 0 17.5C0 16.9337 0.459102 16.4746 1.02539 16.4746H4.31033C4.87662 16.4746 5.33572 16.9337 5.33572 17.5C5.33572 18.0663 4.87662 18.5254 4.31033 18.5254Z" fill="#FDBF00"/>
    <path d="M8.17345 9.19892C7.91102 9.19892 7.64859 9.09884 7.44844 8.89854L5.12565 6.57576C4.72521 6.17531 4.72521 5.5261 5.12565 5.12565C5.5261 4.72521 6.17538 4.72521 6.57576 5.12565L8.89854 7.44844C9.29899 7.84889 9.29899 8.4981 8.89854 8.89854C8.69832 9.09884 8.43582 9.19892 8.17345 9.19892Z" fill="#FDBF00"/>
    <path d="M5.85074 30.1748C5.5883 30.1748 5.32587 30.0747 5.12572 29.8744C4.72527 29.4741 4.72527 28.8248 5.12572 28.4243L7.4485 26.1016C7.84888 25.7012 8.49816 25.7012 8.89861 26.1016C9.29906 26.5019 9.29906 27.1512 8.89861 27.5517L6.57582 29.8744C6.3756 30.0747 6.11317 30.1748 5.85074 30.1748Z" fill="#FDBF00"/>
    <path d="M12.557 6.29743C12.1515 6.29743 11.7674 6.05516 11.6061 5.65608L10.3749 2.61053C10.1627 2.08546 10.4162 1.4878 10.9412 1.27561C11.4662 1.06329 12.064 1.3169 12.2762 1.8419L13.5073 4.88745C13.7196 5.41251 13.466 6.01018 12.941 6.22237C12.8152 6.27336 12.685 6.29743 12.557 6.29743Z" fill="#FDBF00"/>
    <path d="M2.22659 24.7C1.82101 24.7 1.43697 24.4578 1.27564 24.0587C1.06339 23.5336 1.31693 22.936 1.84193 22.7238L4.88741 21.4926C5.41241 21.2804 6.01015 21.5339 6.22233 22.0589C6.43459 22.584 6.18104 23.1816 5.65604 23.3938L2.61056 24.625C2.48472 24.676 2.35456 24.7 2.22659 24.7Z" fill="#FDBF00"/>
    <path d="M11.2523 33.7697C11.1228 33.7697 10.9912 33.745 10.8639 33.6929C10.3399 33.4781 10.0891 32.8792 10.3039 32.3552L11.5496 29.3156C11.7645 28.7917 12.3631 28.5409 12.8873 28.7557C13.4113 28.9705 13.662 29.5693 13.4472 30.0933L12.2015 33.1329C12.039 33.5295 11.6561 33.7697 11.2523 33.7697Z" fill="#FDBF00"/>
    <path d="M5.29505 13.5241C5.16551 13.5241 5.03392 13.4994 4.90663 13.4472L1.86703 12.2016C1.34299 11.9868 1.09225 11.388 1.30703 10.864C1.52182 10.34 2.12072 10.0893 2.64462 10.304L5.68422 11.5497C6.20826 11.7644 6.45901 12.3633 6.24422 12.8872C6.08166 13.284 5.69885 13.5241 5.29505 13.5241Z" fill="#FDBF00"/>
    <path d="M33.9746 16.4747H32.3808L33.162 15.1216C33.4452 14.6311 33.2772 14.0039 32.7867 13.7209C32.2962 13.4376 31.6691 13.6057 31.386 14.0962L30.0128 16.4747H19.9755L27.073 9.37718L29.7258 10.088C29.8147 10.1118 29.904 10.1233 29.9919 10.1233C30.4446 10.1233 30.859 9.82111 30.9817 9.36303C31.1283 8.81602 30.8037 8.2537 30.2567 8.10713L28.7474 7.70272L29.7778 6.67241C30.1782 6.27203 30.1782 5.62275 29.7778 5.2223C29.3774 4.82192 28.7281 4.82192 28.3276 5.2223L27.2973 6.25268L26.8929 4.74344C26.7462 4.19643 26.1842 3.87227 25.637 4.01842C25.0899 4.16505 24.7654 4.72731 24.912 5.27432L25.6228 7.92721L18.5254 15.0246V4.98721L20.9039 3.61401C21.3943 3.33086 21.5624 2.7038 21.2792 2.21333C20.996 1.72278 20.3688 1.55482 19.8785 1.83803L18.5254 2.61924V1.02551C18.5254 0.459224 18.0663 0.00012207 17.5 0.00012207V35C18.0663 35 18.5254 34.5409 18.5254 33.9746V32.3809L19.8785 33.1621C20.04 33.2554 20.2163 33.2997 20.3902 33.2997C20.7446 33.2997 21.0893 33.1158 21.2792 32.7868C21.5624 32.2964 21.3943 31.6692 20.9039 31.3862L18.5254 30.0129V19.9755L25.6228 27.073L24.912 29.7259C24.7654 30.2729 25.0901 30.8352 25.6371 30.9817C25.726 31.0055 25.8152 31.017 25.9031 31.017C26.3558 31.017 26.7702 30.7147 26.8929 30.2567L27.2973 28.7475L28.3276 29.7778C28.5278 29.978 28.7902 30.0782 29.0526 30.0782C29.315 30.0782 29.5775 29.978 29.7776 29.7778C30.1781 29.3774 30.1781 28.7281 29.7776 28.3277L28.7472 27.2973L30.2565 26.8929C30.8036 26.7463 31.1281 26.184 30.9816 25.637C30.8349 25.09 30.2729 24.7654 29.7257 24.9121L27.0728 25.6229L19.9755 18.5254H30.0128L31.386 20.9039C31.5759 21.233 31.9206 21.4168 32.275 21.4168C32.449 21.4168 32.6253 21.3725 32.7867 21.2792C33.2771 20.9961 33.4452 20.369 33.162 19.8785L32.3809 18.5254H33.9746C34.5409 18.5254 35 18.0663 35 17.5001C35 16.9338 34.5409 16.4747 33.9746 16.4747Z" fill="#4793FF"/>
  </g>
  <defs>
    <clipPath id="clip0_103_161">
      <rect width="35" height="35" fill="white"/>
    </clipPath>
  </defs>
</symbol>

<symbol id="sun" viewBox="0 0 35 35">
  <g clip-path="url(#clip0_101_10)">
    <path d="M17.5 27.002C12.2606 27.002 7.99805 22.7394 7.99805 17.5C7.99805 12.2606 12.2606 7.99805 17.5 7.99805C22.7394 7.99805 27.002 12.2606 27.002 17.5C27.002 22.7394 22.7394 27.002 17.5 27.002Z" fill="#FDBF00"/>
    <path d="M17.5 5.58106C16.9337 5.58106 16.4746 5.12196 16.4746 4.55567V1.02539C16.4746 0.459102 16.9337 0 17.5 0C18.0663 0 18.5254 0.459102 18.5254 1.02539V4.55567C18.5254 5.12196 18.0663 5.58106 17.5 5.58106Z" fill="#FDBF00"/>
    <path d="M33.9746 18.5254H30.4443C29.878 18.5254 29.4189 18.0663 29.4189 17.5C29.4189 16.9337 29.878 16.4746 30.4443 16.4746H33.9746C34.5409 16.4746 35 16.9337 35 17.5C35 18.0663 34.5409 18.5254 33.9746 18.5254Z" fill="#FF8856"/>
    <path d="M17.5 35.0001C16.9337 35.0001 16.4746 34.541 16.4746 33.9747V30.4444C16.4746 29.8781 16.9337 29.419 17.5 29.419C18.0663 29.419 18.5254 29.8781 18.5254 30.4444V33.9747C18.5254 34.541 18.0663 35.0001 17.5 35.0001Z" fill="#FDBF00"/>
    <path d="M4.55567 18.5254H1.02539C0.459102 18.5254 0 18.0663 0 17.5C0 16.9337 0.459102 16.4746 1.02539 16.4746H4.55567C5.12196 16.4746 5.58106 16.9337 5.58106 17.5C5.58106 18.0663 5.12196 18.5254 4.55567 18.5254Z" fill="#FDBF00"/>
    <path d="M26.6531 9.37241C26.3907 9.37241 26.1282 9.27233 25.9281 9.07204C25.5276 8.67166 25.5276 8.02238 25.9281 7.62193L28.4244 5.12565C28.8248 4.72521 29.474 4.72521 29.8745 5.12565C30.2749 5.52604 30.2749 6.17531 29.8745 6.57576L27.3782 9.07204C27.178 9.27233 26.9155 9.37241 26.6531 9.37241Z" fill="#FF8856"/>
    <path d="M29.1493 30.1746C28.8869 30.1746 28.6245 30.0745 28.4243 29.8743L25.928 27.378C25.5275 26.9777 25.5275 26.3284 25.928 25.9279C26.3283 25.5276 26.9776 25.5275 27.3781 25.9279L29.8744 28.4242C30.2748 28.8246 30.2748 29.4739 29.8744 29.8743C29.6742 30.0745 29.4117 30.1746 29.1493 30.1746Z" fill="#FF8856"/>
    <path d="M5.85067 30.1747C5.58824 30.1747 5.32581 30.0746 5.12565 29.8744C4.72521 29.474 4.72521 28.8247 5.12565 28.4242L7.62193 25.928C8.02231 25.5275 8.67159 25.5275 9.07204 25.928C9.47249 26.3283 9.47249 26.9776 9.07204 27.3781L6.57576 29.8744C6.37554 30.0746 6.1131 30.1747 5.85067 30.1747Z" fill="#FDBF00"/>
    <path d="M8.34689 9.37241C8.08446 9.37241 7.82203 9.27233 7.62188 9.07204L5.12553 6.57576C4.72508 6.17538 4.72508 5.5261 5.12553 5.12565C5.52591 4.72521 6.17519 4.72521 6.57564 5.12565L9.07198 7.62193C9.47243 8.02231 9.47243 8.67159 9.07198 9.07204C8.87176 9.27233 8.60932 9.37241 8.34689 9.37241Z" fill="#FDBF00"/>
    <path d="M22.4672 6.57266C22.336 6.57266 22.2028 6.54737 22.0741 6.49391C21.5512 6.2766 21.3034 5.67647 21.5207 5.15352L22.8754 1.8936C23.0929 1.37058 23.693 1.12298 24.2158 1.34023C24.7387 1.55755 24.9865 2.15767 24.7692 2.68062L23.4145 5.94054C23.2506 6.33477 22.8691 6.57266 22.4672 6.57266Z" fill="#FF8856"/>
    <path d="M32.7128 24.8481C32.5816 24.8481 32.4484 24.8228 32.3196 24.7693L29.0597 23.4146C28.5368 23.1973 28.2891 22.5971 28.5063 22.0742C28.7237 21.5512 29.3237 21.3035 29.8467 21.5208L33.1067 22.8756C33.6296 23.0929 33.8773 23.693 33.6601 24.2159C33.4962 24.6102 33.1147 24.8481 32.7128 24.8481Z" fill="#FF8856"/>
    <path d="M11.1773 33.7388C11.0461 33.7388 10.9129 33.7135 10.7841 33.66C10.2613 33.4427 10.0135 32.8426 10.2308 32.3197L11.5855 29.0597C11.8029 28.5367 12.4029 28.2891 12.9259 28.5064C13.4488 28.7237 13.6965 29.3238 13.4793 29.8468L12.1245 33.1067C11.9607 33.5009 11.5792 33.7388 11.1773 33.7388Z" fill="#FDBF00"/>
    <path d="M5.5464 13.5581C5.41522 13.5581 5.28199 13.5328 5.15327 13.4794L1.89334 12.1246C1.37039 11.9073 1.12266 11.3072 1.33991 10.7842C1.55729 10.2613 2.15735 10.0137 2.6803 10.2309L5.94022 11.5856C6.4631 11.8029 6.71083 12.4031 6.49359 12.926C6.3298 13.3203 5.94828 13.5581 5.5464 13.5581Z" fill="#FDBF00"/>
    <path d="M29.4652 13.5859C29.0624 13.5859 28.6803 13.3469 28.517 12.9515C28.3009 12.428 28.5501 11.8285 29.0736 11.6124L32.3366 10.2652C32.8599 10.0492 33.4596 10.2983 33.6757 10.8217C33.8918 11.3452 33.6427 11.9448 33.1192 12.1608L29.8561 13.508C29.7281 13.5608 29.5956 13.5859 29.4652 13.5859Z" fill="#FF8856"/>
    <path d="M23.7872 33.7537C23.3843 33.7537 23.0023 33.5148 22.839 33.1193L21.4918 29.8562C21.2757 29.3327 21.5248 28.7332 22.0484 28.5171C22.5717 28.301 23.1714 28.5501 23.3875 29.0736L24.7346 32.3367C24.9507 32.8601 24.7016 33.4597 24.178 33.6758C24.05 33.7287 23.9175 33.7537 23.7872 33.7537Z" fill="#FF8856"/>
    <path d="M2.2724 24.8122C1.86949 24.8122 1.4875 24.5733 1.32419 24.1779C1.1081 23.6544 1.35727 23.0548 1.88077 22.8388L5.1439 21.4916C5.66754 21.2754 6.26691 21.5247 6.483 22.0481C6.69908 22.5715 6.44991 23.1711 5.92641 23.3871L2.66328 24.7344C2.53531 24.7872 2.40269 24.8122 2.2724 24.8122Z" fill="#FDBF00"/>
    <path d="M12.5608 6.56098C12.158 6.56098 11.7759 6.32207 11.6126 5.92661L10.2655 2.66347C10.0494 2.14004 10.2985 1.54046 10.8221 1.32438C11.3454 1.1083 11.945 1.3574 12.1612 1.88089L13.5083 5.14403C13.7244 5.66753 13.4753 6.26704 12.9517 6.48312C12.8238 6.53589 12.6912 6.56098 12.5608 6.56098Z" fill="#FDBF00"/>
    <path d="M17.5 0V5.58106C18.0663 5.58106 18.5254 5.12196 18.5254 4.55567V1.02539C18.5254 0.459102 18.0663 0 17.5 0Z" fill="#FF8856"/>
    <path d="M17.5 7.99805V27.002C22.7394 27.002 27.002 22.7394 27.002 17.5C27.002 12.2606 22.7394 7.99805 17.5 7.99805Z" fill="#FF8856"/>
    <path d="M17.5 29.419V35.0001C18.0663 35.0001 18.5254 34.541 18.5254 33.9747V30.4444C18.5254 29.8781 18.0663 29.419 17.5 29.419Z" fill="#FF8856"/>
  </g>
  <defs>
    <clipPath id="clip0_101_10">
      <rect width="35" height="35" fill="white"/>
    </clipPath>
  </defs>
</symbol>

<symbol id="snow" viewBox="0 0 35 35">
  <g clip-path="url(#clip0_101_69)">
    <path d="M21.3623 31.1036C21.3623 30.5373 20.9032 30.0782 20.3369 30.0782H19.9755L20.2311 29.8226C20.6315 29.4221 20.6315 28.7729 20.2311 28.3725C19.8307 27.972 19.1814 27.972 18.781 28.3725L18.5254 28.6281V28.2325C18.5254 27.6663 18.0663 27.2072 17.5 27.2072C16.9337 27.2072 16.4746 27.6663 16.4746 28.2325V28.6281L16.1949 28.3484C15.7945 27.948 15.1452 27.948 14.7448 28.3484C14.3443 28.7489 14.3443 29.3981 14.7448 29.7985L15.0245 30.0782H14.6631C14.0968 30.0782 13.6377 30.5373 13.6377 31.1036C13.6377 31.6699 14.0968 32.129 14.6631 32.129H15.0245L14.7689 32.3846C14.3685 32.7851 14.3685 33.4343 14.7689 33.8347C14.9691 34.035 15.2316 34.1351 15.4939 34.1351C15.7563 34.1351 16.0188 34.035 16.2189 33.8347L16.4745 33.5791V33.9747C16.4745 34.541 16.9336 35.0001 17.4999 35.0001C18.0662 35.0001 18.5253 34.541 18.5253 33.9747V33.5791L18.805 33.8588C19.0053 34.059 19.2677 34.1592 19.5301 34.1592C19.7924 34.1592 20.0549 34.0591 20.2551 33.8588C20.6555 33.4583 20.6555 32.8091 20.2551 32.4087L19.9755 32.129H20.3369C20.9033 32.129 21.3623 31.6699 21.3623 31.1036Z" fill="#7DD5F4"/>
    <path d="M7.72461 24.6094C7.72461 24.0431 7.26551 23.584 6.69922 23.584H6.3378L6.5934 23.3284C6.99385 22.9279 6.99385 22.2787 6.5934 21.8783C6.19302 21.4778 5.54374 21.4778 5.14329 21.8783L4.8877 22.1339V21.7383C4.8877 21.172 4.42859 20.7129 3.8623 20.7129C3.29602 20.7129 2.83691 21.172 2.83691 21.7383V22.1339L2.55719 21.8542C2.15681 21.4537 1.50753 21.4537 1.10708 21.8542C0.706631 22.2546 0.706631 22.9038 1.10708 23.3043L1.38688 23.584H1.02539C0.459102 23.584 0 24.0431 0 24.6094C0 25.1757 0.459102 25.6348 1.02539 25.6348H1.38681L1.13121 25.8904C0.730762 26.2908 0.730762 26.94 1.13121 27.3405C1.33144 27.5407 1.59387 27.6408 1.85623 27.6408C2.11859 27.6408 2.38109 27.5408 2.58125 27.3405L2.83685 27.0849V27.4805C2.83685 28.0468 3.29595 28.5059 3.86224 28.5059C4.42853 28.5059 4.88763 28.0468 4.88763 27.4805V27.0849L5.16735 27.3646C5.36758 27.5648 5.63001 27.665 5.89237 27.665C6.15474 27.665 6.41724 27.5649 6.61739 27.3646C7.01784 26.9641 7.01784 26.3149 6.61739 25.9145L6.3378 25.6348H6.69922C7.26558 25.6348 7.72461 25.1757 7.72461 24.6094Z" fill="#7DD5F4"/>
    <path d="M35 24.6094C35 24.0431 34.5409 23.584 33.9746 23.584H33.6132L33.8688 23.3284C34.2692 22.9279 34.2692 22.2787 33.8688 21.8783C33.4684 21.4778 32.8191 21.4778 32.4187 21.8783L32.1631 22.1339V21.7383C32.1631 21.172 31.704 20.7129 31.1377 20.7129C30.5714 20.7129 30.1123 21.172 30.1123 21.7383V22.1339L29.8326 21.8542C29.4322 21.4537 28.7829 21.4537 28.3825 21.8542C27.982 22.2546 27.982 22.9038 28.3825 23.3043L28.6622 23.584H28.3008C27.7345 23.584 27.2754 24.0431 27.2754 24.6094C27.2754 25.1757 27.7345 25.6348 28.3008 25.6348H28.6622L28.4066 25.8904C28.0062 26.2908 28.0062 26.94 28.4066 27.3405C28.6068 27.5407 28.8693 27.6408 29.1316 27.6408C29.394 27.6408 29.6565 27.5408 29.8566 27.3405L30.1122 27.0849V27.4805C30.1122 28.0468 30.5713 28.5059 31.1376 28.5059C31.7039 28.5059 32.163 28.0468 32.163 27.4805V27.0849L32.4427 27.3646C32.643 27.5648 32.9054 27.665 33.1678 27.665C33.4301 27.665 33.6926 27.5649 33.8928 27.3646C34.2932 26.9641 34.2932 26.3149 33.8928 25.9145L33.6132 25.6348H33.9746C34.541 25.6348 35 25.1757 35 24.6094Z" fill="#4793FF"/>
    <path fill-rule="evenodd" clip-rule="evenodd" d="M11.7921 25.5665C12.3569 25.5665 12.8175 25.1059 12.8175 24.5411C12.8175 23.9764 12.3569 23.5157 11.7921 23.5157C11.2273 23.5157 10.7667 23.9764 10.7667 24.5411C10.7667 25.1059 11.2273 25.5665 11.7921 25.5665Z" fill="#FFF4F4"/>
    <path fill-rule="evenodd" clip-rule="evenodd" d="M23.2081 25.5665C23.7729 25.5665 24.2335 25.1059 24.2335 24.5411C24.2335 23.9764 23.7729 23.5157 23.2081 23.5157C22.6433 23.5157 22.1827 23.9764 22.1827 24.5411C22.1827 25.1059 22.6433 25.5665 23.2081 25.5665Z" fill="#FFF4F4"/>
    <path fill-rule="evenodd" clip-rule="evenodd" d="M6.22076 35C6.78555 35 7.24615 34.5394 7.24615 33.9746C7.24615 33.4098 6.78555 32.9492 6.22076 32.9492C5.65598 32.9492 5.19537 33.4098 5.19537 33.9746C5.19537 34.5394 5.65598 35 6.22076 35Z" fill="#FFF4F4"/>
    <path fill-rule="evenodd" clip-rule="evenodd" d="M28.7794 35C29.3442 35 29.8048 34.5394 29.8048 33.9746C29.8048 33.4098 29.3442 32.9492 28.7794 32.9492C28.2146 32.9492 27.754 33.4098 27.754 33.9746C27.754 34.5394 28.2146 35 28.7794 35Z" fill="#FFF4F4"/>
    <path d="M17.5 21.8067C16.1296 21.8067 14.7886 21.3335 13.7241 20.4742C13.1138 19.9815 12.6073 19.3736 12.2317 18.6938C11.4154 19.244 10.443 19.5508 9.43952 19.5508C7.16302 19.5508 5.20959 18.0017 4.62662 15.8799C3.54593 15.8002 2.51029 15.3706 1.68581 14.6424C0.614481 13.6961 0 12.3332 0 10.9033C0 8.26942 2.05119 6.10557 4.64002 5.92524C4.8881 5.05359 5.3716 4.26131 6.04904 3.63377C6.97394 2.77689 8.17809 2.30501 9.43952 2.30501C10.4344 2.30501 11.3996 2.60702 12.2121 3.14904C12.5858 2.46127 13.0931 1.8459 13.7067 1.34675C14.7743 0.47831 16.1215 0 17.5 0C18.8784 0 20.2256 0.47831 21.2932 1.34668C21.9069 1.84584 22.4141 2.46121 22.7879 3.14897C23.6003 2.60695 24.5655 2.30494 25.5604 2.30494C26.8219 2.30494 28.026 2.77682 28.9509 3.6337C29.6285 4.26145 30.112 5.0538 30.36 5.92579C31.4448 6.00276 32.4848 6.4324 33.3125 7.16275C34.3849 8.10911 35 9.47247 35 10.9032C35 12.3332 34.3855 13.696 33.3142 14.6423C32.4898 15.3704 31.4539 15.8001 30.3733 15.8797C29.7903 18.0015 27.8369 19.5507 25.5604 19.5507C24.557 19.5507 23.5846 19.2439 22.7683 18.6937C22.3927 19.3735 21.8862 19.9814 21.2759 20.4741C20.2113 21.3335 18.8704 21.8067 17.5 21.8067Z" fill="#FFF4F4"/>
    <path d="M33.3125 7.16283C32.4849 6.43241 31.4448 6.00284 30.3601 5.92587C30.112 5.05388 29.6285 4.26146 28.9509 3.63378C28.026 2.77689 26.8219 2.30501 25.5605 2.30501C24.5656 2.30501 23.6004 2.60702 22.7879 3.14904C22.4142 2.46128 21.9069 1.84591 21.2933 1.34675C20.2256 0.478311 18.8785 0 17.5 0V21.8066C18.8703 21.8066 20.2113 21.3335 21.2758 20.4742C21.8862 19.9815 22.3927 19.3736 22.7683 18.6938C23.5845 19.244 24.5569 19.5508 25.5604 19.5508C27.8369 19.5508 29.7903 18.0016 30.3733 15.8798C31.4539 15.8002 32.4897 15.3705 33.3142 14.6424C34.3855 13.6961 35 12.3333 35 10.9033C35.0001 9.47256 34.385 8.1092 33.3125 7.16283Z" fill="#F6EFEA"/>
    <path d="M21.3623 31.1036C21.3623 30.5373 20.9032 30.0782 20.3369 30.0782H19.9755L20.2311 29.8226C20.6315 29.4221 20.6315 28.7729 20.2311 28.3725C19.8307 27.972 19.1814 27.972 18.781 28.3725L18.5254 28.6281V28.2325C18.5254 27.6663 18.0663 27.2072 17.5 27.2072V35.0001C18.0663 35.0001 18.5254 34.541 18.5254 33.9747V33.5791L18.8051 33.8588C19.0053 34.0591 19.2678 34.1592 19.5301 34.1592C19.7925 34.1592 20.055 34.0591 20.2552 33.8588C20.6556 33.4584 20.6556 32.8092 20.2552 32.4087L19.9755 32.1289H20.3369C20.9033 32.1289 21.3623 31.6699 21.3623 31.1036Z" fill="#4793FF"/>
  </g>
  <defs>
    <clipPath id="clip0_101_69">
      <rect width="35" height="35" fill="white"/>
    </clipPath>
  </defs>
</symbol>

<symbol id="clouds-and-sun" viewBox="0 0 35 35">
  <g clip-path="url(#clip0_101_126)">
    <path d="M21.0196 23.193C16.8116 23.1931 13.3691 19.7896 13.3303 15.573C13.2914 11.3326 16.7096 7.85107 20.95 7.8121C20.9738 7.8119 20.9979 7.81183 21.0217 7.81183C25.2297 7.81183 28.6722 11.2152 28.7108 15.4318C28.7497 19.6722 25.3316 23.1537 21.0912 23.1926C21.0675 23.1929 21.0433 23.193 21.0196 23.193Z" fill="#FDBF00"/>
    <path d="M21.0216 7.81183C21.0213 7.81183 21.0208 7.81183 21.0205 7.81183V23.193C21.044 23.193 21.0677 23.1929 21.0911 23.1927C25.3315 23.1538 28.7496 19.6722 28.7107 15.4318C28.6721 11.2152 25.2296 7.81183 21.0216 7.81183Z" fill="#FF8856"/>
    <path d="M21.0505 6.35031C20.4886 6.35031 20.0305 5.89743 20.0254 5.33435L19.9999 2.55862C19.9947 1.99233 20.4495 1.52906 21.0158 1.52386H21.0255C21.5874 1.52386 22.0454 1.97675 22.0506 2.53982L22.0761 5.31555C22.0813 5.88184 21.6265 6.34512 21.0602 6.35031C21.057 6.35031 21.0538 6.35031 21.0505 6.35031Z" fill="#FDBF00"/>
    <path d="M31.1987 16.4347C30.6368 16.4347 30.1788 15.9818 30.1736 15.4188C30.1684 14.8525 30.6232 14.3892 31.1895 14.384L33.9653 14.3585H33.9749C34.5369 14.3585 34.9949 14.8114 35 15.3745C35.0052 15.9408 34.5504 16.404 33.9841 16.4092L31.2084 16.4347C31.2052 16.4347 31.202 16.4347 31.1987 16.4347Z" fill="#FF8856"/>
    <path d="M28.2748 9.26497C28.0155 9.26497 27.7561 9.16729 27.5565 8.9713C27.1524 8.57454 27.1464 7.92533 27.5432 7.52126L29.4878 5.54048C29.8847 5.13641 30.5338 5.13039 30.9379 5.52715C31.342 5.92391 31.348 6.57312 30.9512 6.97719L29.0065 8.95797C28.8058 9.16243 28.5404 9.26497 28.2748 9.26497Z" fill="#FF8856"/>
    <path d="M13.8812 9.39715C13.622 9.39715 13.3626 9.29947 13.1629 9.10348L11.1821 7.15873C10.7781 6.76197 10.7721 6.11276 11.1688 5.70869C11.5656 5.30462 12.2148 5.2986 12.6188 5.69536L14.5996 7.64011C15.0037 8.03687 15.0097 8.68608 14.613 9.09015C14.4123 9.29461 14.1468 9.39715 13.8812 9.39715Z" fill="#FDBF00"/>
    <path d="M24.9635 7.09412C24.8353 7.09412 24.7051 7.06992 24.579 7.01892C24.0541 6.80639 23.8008 6.20859 24.0134 5.68366L25.0551 3.11068C25.2675 2.58575 25.8656 2.33261 26.3903 2.54501C26.9152 2.75754 27.1685 3.35534 26.9559 3.88027L25.9142 6.45325C25.7528 6.85206 25.3688 7.09412 24.9635 7.09412Z" fill="#FF8856"/>
    <path d="M33.1511 21.3898C33.023 21.3898 32.8927 21.3656 32.7667 21.3146L30.1937 20.2729C29.6688 20.0604 29.4155 19.4626 29.6281 18.9377C29.8406 18.4127 30.4388 18.1595 30.9633 18.372L33.5363 19.4137C34.0612 19.6262 34.3145 20.224 34.1019 20.7489C33.9404 21.1478 33.5565 21.3898 33.1511 21.3898Z" fill="#FF8856"/>
    <path d="M11.7093 12.7087C11.5812 12.7087 11.4509 12.6845 11.3249 12.6335L8.75191 11.5918C8.22698 11.3793 7.97371 10.7815 8.18624 10.2565C8.39877 9.73153 8.99664 9.4784 9.5215 9.69086L12.0945 10.7326C12.6194 10.9451 12.8727 11.5429 12.6602 12.0679C12.4987 12.4667 12.1147 12.7087 11.7093 12.7087Z" fill="#FDBF00"/>
    <path d="M30.5167 12.558C30.1172 12.558 29.7376 12.3233 29.5721 11.9324C29.3512 11.4109 29.5948 10.8091 30.1163 10.5882L32.6723 9.50545C33.1938 9.28452 33.7956 9.52822 34.0164 10.0497C34.2373 10.5711 33.9936 11.1729 33.4722 11.3938L30.9162 12.4766C30.7857 12.5318 30.65 12.558 30.5167 12.558Z" fill="#FF8856"/>
    <path d="M17.1743 7.15653C16.7749 7.15653 16.3953 6.92178 16.2297 6.53084L15.1469 3.97488C14.926 3.45343 15.1697 2.85167 15.691 2.63073C16.2124 2.40972 16.8143 2.65349 17.0352 3.17487L18.118 5.73083C18.3389 6.25227 18.0952 6.85404 17.5738 7.07498C17.4433 7.13035 17.3076 7.15653 17.1743 7.15653Z" fill="#FDBF00"/>
    <path d="M15.2441 33.476C14.0295 33.476 12.8408 33.0566 11.8971 32.2949C11.3956 31.89 10.9732 31.3975 10.649 30.8477C9.94868 31.2861 9.13028 31.5291 8.28741 31.5291C6.29269 31.5291 4.57618 30.1942 4.02527 28.3521C3.09777 28.2632 2.21225 27.8846 1.50247 27.2577C0.547627 26.4142 0 25.1996 0 23.9253C0 21.611 1.77673 19.7039 4.03785 19.4966C4.26624 18.7567 4.68645 18.0848 5.26579 17.5481C6.09007 16.7845 7.16317 16.3638 8.28741 16.3638C9.12263 16.3638 9.93426 16.6026 10.6309 17.0341C10.954 16.4775 11.3773 15.9786 11.8817 15.5683C12.8281 14.7985 14.0222 14.3745 15.2441 14.3745C16.4661 14.3745 17.6602 14.7985 18.6066 15.5683C19.111 15.9786 19.5344 16.4775 19.8574 17.034C20.5539 16.6026 21.3657 16.3638 22.2009 16.3638C23.3251 16.3638 24.3983 16.7843 25.2226 17.548C25.8021 18.0849 26.2223 18.757 26.4506 19.4972C27.382 19.5839 28.2716 19.9626 28.9844 20.5916C29.9401 21.435 30.4883 22.65 30.4883 23.9252C30.4883 25.1996 29.9407 26.4142 28.9858 27.2575C28.2761 27.8844 27.3905 28.2629 26.463 28.352C25.9121 30.1941 24.1956 31.529 22.2009 31.529C21.3579 31.529 20.5396 31.2861 19.8393 30.8475C19.5151 31.3974 19.0927 31.89 18.5912 32.2947C17.6475 33.0566 16.4588 33.476 15.2441 33.476Z" fill="#FFF4F4"/>
    <path d="M28.9844 20.5917C28.2716 19.9627 27.382 19.584 26.4506 19.4973C26.2223 18.7571 25.802 18.085 25.2226 17.5481C24.3983 16.7845 23.3252 16.3639 22.2009 16.3639C21.3657 16.3639 20.554 16.6027 19.8574 17.0342C19.5343 16.4776 19.111 15.9787 18.6066 15.5684C17.6602 14.7986 16.4661 14.3746 15.2441 14.3746V33.4761C16.4588 33.4761 17.6475 33.0566 18.5912 32.2949C19.0927 31.8901 19.5151 31.3976 19.8393 30.8477C20.5396 31.2863 21.358 31.5291 22.2009 31.5291C24.1956 31.5291 25.9121 30.1943 26.463 28.3521C27.3904 28.2631 28.2761 27.8846 28.9858 27.2577C29.9407 26.4143 30.4883 25.1997 30.4883 23.9253C30.4883 22.6502 29.9401 21.4351 28.9844 20.5917Z" fill="#F6EFEA"/>
    <path d="M22.0505 2.53964C22.0454 1.97656 21.5874 1.52368 21.0254 1.52368C21.0238 1.52368 21.0221 1.52368 21.0205 1.52368V6.34869C21.0306 6.34896 21.0404 6.35019 21.0506 6.35019H21.0602C21.6265 6.345 22.0814 5.88166 22.0761 5.31544L22.0505 2.53964Z" fill="#FF8856"/>
  </g>
  <defs>
    <clipPath id="clip0_101_126">
      <rect width="35" height="35" fill="white"/>
    </clipPath>
  </defs>
</symbol>

<symbol id="cloudy" viewBox="0 0 35 35">
  <g clip-path="url(#clip0_101_173)">
    <path d="M29.4091 22.9252C25.7807 22.9252 17.3616 20.275 13.628 16.9702C12.251 15.7514 11.5527 14.4961 11.5527 13.2393C11.5527 10.45 13.822 8.1807 16.6113 8.1807C17.0894 8.1807 17.5612 8.24776 18.0141 8.37833C18.6991 6.38654 20.5868 4.97205 22.7979 4.97205C24.6251 4.97205 26.2966 5.96572 27.1872 7.51536C27.33 7.50326 27.4735 7.49717 27.6172 7.49717C30.4065 7.49717 32.6758 9.76643 32.6758 12.5558C32.6758 12.8838 32.6447 13.2076 32.5829 13.525C34.0587 14.4335 35 16.0673 35 17.8386C35 19.1677 34.4651 20.4084 33.4938 21.3321C32.608 22.1744 31.3907 22.7276 30.0659 22.8896C29.87 22.9135 29.65 22.9252 29.4091 22.9252Z" fill="#EEE1DC"/>
    <path d="M32.5829 13.525C32.6447 13.2075 32.6758 12.8838 32.6758 12.5557C32.6758 9.76638 30.4065 7.49712 27.6172 7.49712C27.4734 7.49712 27.33 7.50321 27.1872 7.51531C26.375 6.10211 24.9133 5.15171 23.2764 4.99524V21.7547C25.6866 22.4909 27.9403 22.9252 29.4091 22.9252C29.65 22.9252 29.87 22.9135 30.0659 22.8896C31.3907 22.7276 32.608 22.1745 33.4938 21.3321C34.4651 20.4084 35 19.1677 35 17.8386C35 16.0673 34.0587 14.4335 32.5829 13.525Z" fill="#E0D2CD"/>
    <path d="M14.5696 30.028C13.4014 30.028 12.2583 29.6247 11.3508 28.8921C10.8815 28.5133 10.4843 28.0546 10.176 27.543C9.51057 27.9491 8.73811 28.1735 7.94288 28.1735C6.0323 28.1735 4.38669 26.9024 3.84583 25.1437C2.96399 25.0524 2.12317 24.6892 1.44758 24.0924C0.527666 23.2798 0 22.1096 0 20.8817C0 18.663 1.69511 16.8328 3.85813 16.6178C4.0803 15.9171 4.48144 15.2809 5.03152 14.7713C5.82572 14.0355 6.85966 13.6303 7.94288 13.6303C8.73065 13.6303 9.49676 13.8509 10.1583 14.2501C10.4657 13.7322 10.8639 13.2674 11.336 12.8834C12.2462 12.1431 13.3946 11.7354 14.5696 11.7354C15.7447 11.7354 16.8931 12.1431 17.8032 12.8834C18.2753 13.2674 18.6735 13.7323 18.9809 14.2501C19.6425 13.8509 20.4086 13.6303 21.1964 13.6303C22.2796 13.6303 23.3136 14.0356 24.1078 14.7713C24.658 15.2811 25.0592 15.9174 25.2813 16.6185C26.167 16.7077 27.0117 17.071 27.6903 17.6698C28.6112 18.4824 29.1393 19.6531 29.1393 20.8817C29.1393 22.1096 28.6117 23.2798 27.6917 24.0924C27.0162 24.6891 26.1753 25.0523 25.2934 25.1436C24.7526 26.9023 23.1069 28.1734 21.1964 28.1734C20.4012 28.1734 19.6286 27.949 18.9633 27.543C18.655 28.0546 18.2578 28.5133 17.7885 28.892C16.8809 29.6246 15.7378 30.028 14.5696 30.028Z" fill="#FFF4F4"/>
    <path d="M27.6902 17.6698C27.0116 17.071 26.1669 16.7077 25.2812 16.6185C25.0591 15.9174 24.6579 15.2811 24.1076 14.7713C23.3134 14.0355 22.2795 13.6303 21.1963 13.6303C20.4086 13.6303 19.6424 13.8509 18.9808 14.2501C18.6735 13.7322 18.2753 13.2674 17.8031 12.8834C16.893 12.1431 15.7445 11.7354 14.5695 11.7354V30.028C15.7376 30.028 16.8808 29.6247 17.7883 28.8921C18.2576 28.5133 18.6548 28.0546 18.9631 27.543C19.6285 27.949 20.401 28.1735 21.1962 28.1735C23.1067 28.1735 24.7524 26.9024 25.2933 25.1437C26.175 25.0524 27.0159 24.6891 27.6915 24.0925C28.6115 23.2799 29.1392 22.1096 29.1392 20.8818C29.1392 19.6531 28.6111 18.4824 27.6902 17.6698Z" fill="#F6EFEA"/>
  </g>
  <defs>
    <clipPath id="clip0_101_173">
      <rect width="35" height="35" fill="white"/>
    </clipPath>
  </defs>
</symbol>

<symbol id="line1" viewBox="0 0 3 32">
<path fill="none" opacity="0.4" stroke="#fff" style="stroke: var(--color1, #fff)" stroke-linejoin="miter" stroke-linecap="butt" stroke-miterlimit="4" stroke-width="1.4545" d="M1.455 0v32"></path>
</symbol>

<symbol id="cloudy" viewBox="0 0 35 35">
<path fill="#eee1dc" style="fill: var(--color1, #eee1dc)" d="M26.888 20.96c-3.317 0-11.015-2.423-14.428-5.445-1.259-1.114-1.897-2.262-1.897-3.411 0-2.55 2.075-4.625 4.625-4.625 0.437 0 0.868 0.061 1.283 0.181 0.626-1.821 2.352-3.114 4.374-3.114 1.671 0 3.199 0.909 4.013 2.325 0.131-0.011 0.262-0.017 0.393-0.017 2.55 0 4.625 2.075 4.625 4.625 0 0.3-0.028 0.596-0.085 0.886 1.349 0.831 2.21 2.324 2.21 3.944 0 1.215-0.489 2.35-1.377 3.194-0.81 0.77-1.923 1.276-3.134 1.424-0.179 0.022-0.38 0.033-0.601 0.033z"></path>
<path fill="#e0d2cd" style="fill: var(--color2, #e0d2cd)" d="M29.79 12.366c0.056-0.29 0.085-0.586 0.085-0.886 0-2.55-2.075-4.625-4.625-4.625-0.131 0-0.263 0.006-0.393 0.017-0.743-1.292-2.079-2.161-3.576-2.304v15.323c2.204 0.673 4.264 1.070 5.607 1.070 0.22 0 0.421-0.011 0.601-0.033 1.211-0.148 2.324-0.654 3.134-1.424 0.888-0.845 1.377-1.979 1.377-3.194 0-1.619-0.861-3.113-2.21-3.944z"></path>
<path fill="#fff4f4" style="fill: var(--color3, #fff4f4)" d="M13.321 27.454c-1.068 0-2.113-0.369-2.943-1.039-0.429-0.346-0.792-0.766-1.074-1.233-0.608 0.371-1.315 0.576-2.042 0.576-1.747 0-3.251-1.162-3.746-2.77-0.806-0.083-1.575-0.416-2.193-0.961-0.841-0.743-1.323-1.813-1.323-2.936 0-2.029 1.55-3.702 3.527-3.898 0.203-0.641 0.57-1.222 1.073-1.688 0.726-0.673 1.671-1.043 2.662-1.043 0.72 0 1.421 0.202 2.026 0.567 0.281-0.473 0.645-0.898 1.077-1.25 0.832-0.677 1.882-1.050 2.956-1.050s2.124 0.373 2.956 1.050c0.432 0.351 0.796 0.776 1.077 1.25 0.605-0.365 1.305-0.567 2.026-0.567 0.99 0 1.936 0.371 2.662 1.043 0.503 0.466 0.87 1.048 1.073 1.689 0.81 0.082 1.582 0.414 2.203 0.961 0.842 0.743 1.325 1.813 1.325 2.937s-0.482 2.193-1.324 2.936c-0.618 0.546-1.386 0.878-2.193 0.961-0.494 1.608-1.999 2.77-3.746 2.77-0.727 0-1.433-0.205-2.042-0.576-0.282 0.468-0.645 0.887-1.074 1.233-0.83 0.67-1.875 1.039-2.943 1.039z"></path>
<path fill="#f6efea" style="fill: var(--color4, #f6efea)" d="M25.317 16.155c-0.62-0.547-1.393-0.88-2.203-0.961-0.203-0.641-0.57-1.223-1.073-1.689-0.726-0.673-1.671-1.043-2.662-1.043-0.72 0-1.421 0.202-2.026 0.567-0.281-0.473-0.645-0.898-1.077-1.25-0.832-0.677-1.882-1.050-2.956-1.050v16.725c1.068 0 2.113-0.369 2.943-1.039 0.429-0.346 0.792-0.766 1.074-1.233 0.608 0.371 1.315 0.576 2.042 0.576 1.747 0 3.251-1.162 3.746-2.77 0.806-0.083 1.575-0.416 2.193-0.961 0.841-0.743 1.324-1.813 1.324-2.936s-0.483-2.194-1.325-2.937z"></path>
</symbol>
<!-- ******************************* -->
<!-- quote -->
<symbol id="quote" viewBox="0 0 35 32">
    <defs>
        <!-- Define a filter with a drop-shadow effect -->
        <filter id="glow">
            <feGaussianBlur in="SourceAlpha" stdDeviation="2" />
            <feOffset dx="0" dy="0" result="offsetblur" />
            <feComponentTransfer>
                <feFuncA type="linear" slope="0.3" />
            </feComponentTransfer>
            <feMerge>
                <feMergeNode />
                <feMergeNode in="SourceGraphic" />
            </feMerge>
        </filter>
    </defs>
    <!-- Apply the filter to the path -->
    <path fill="#fff" style="fill: var(--color1, #fff); filter: url(#glow);" opacity="0.2" d="M21.593 13.843v-13.843h12.784v10.929c0 5.917-0.706 10.2-2.12 12.85-1.855 3.533-4.791 6.204-8.809 8.015l-2.914-4.637c2.429-1.016 4.217-2.539 5.365-4.57 1.148-1.987 1.788-4.901 1.921-8.743h-6.226zM1.060 13.843v-13.843h12.784v10.929c0 5.917-0.707 10.2-2.12 12.85-1.855 3.533-4.791 6.204-8.809 8.015l-2.914-4.637c2.429-1.016 4.217-2.539 5.365-4.57 1.148-1.987 1.788-4.901 1.921-8.743h-6.226z"></path>
</symbol>
<!-- part of search bar and arrows -->
<symbol id="location" viewBox="0 0 32 32">
<path fill="none" stroke="#aeb3b9" style="stroke: var(--color1, #aeb3b9)" stroke-linejoin="miter" stroke-linecap="butt" stroke-miterlimit="4" stroke-width="2.9091" d="M27.636 16c0 6.427-5.21 11.636-11.636 11.636s-11.636-5.21-11.636-11.636c0-6.427 5.21-11.636 11.636-11.636s11.636 5.21 11.636 11.636z"></path>
<path fill="#aeb3b9" style="fill: var(--color1, #aeb3b9)" d="M14.545 0h2.909v5.818h-2.909v-5.818z"></path>
<path fill="#aeb3b9" style="fill: var(--color1, #aeb3b9)" d="M14.545 26.182h2.909v5.818h-2.909v-5.818z"></path>
<path fill="#aeb3b9" style="fill: var(--color1, #aeb3b9)" d="M5.818 14.545v2.909h-5.818v-2.909h5.818z"></path>
<path fill="#aeb3b9" style="fill: var(--color1, #aeb3b9)" d="M32 14.545v2.909h-5.818v-2.909h5.818z"></path>
</symbol>

<symbol id="star" viewBox="0 0 35 32">
<path fill="none" stroke="#7e8691" style="stroke: var(--color1, #7e8691)" stroke-linejoin="miter" stroke-linecap="butt" stroke-miterlimit="4" stroke-width="1.6" d="M17.6 2.589l3.37 10.372h10.906l-8.823 6.411 0.18 0.553 3.191 9.82-8.823-6.411-8.823 6.411 3.37-10.372-8.823-6.411h10.906l3.37-10.372z"></path>
</symbol>


<symbol id="arrow_left" viewBox="0 0 28 28">
  <circle cx="14" cy="14" r="14" transform="rotate(90 14 14)" fill="white" fill-opacity="0.2"/>
  <path d="M18 12L14 16L10 12" stroke="white" stroke-width="1.5"/>
</symbol>
<!-- ********************************* -->

<symbol id="Vector3" viewBox="0 0 2 46">
  <path opacity="0.8" d="M1 0V46" stroke="white"/>
</symbol>

</defs>
</svg>
