<svg aria-hidden="true" style="position: absolute; width: 0; height: 0; overflow: hidden;" version="1.1"
    xmlns="http://www.w3.org/2000/svg" xmlns:xlink="http://www.w3.org/1999/xlink">
    <defs>
        <symbol id="sunrise" viewBox="0 0 32 32">
            <path fill="#ff6b09" style="fill: var(--color1, #ff6b09)"
                d="M16 5.103c0.518 0 0.937-0.42 0.937-0.938v-3.228c0-0.518-0.42-0.938-0.937-0.938s-0.938 0.42-0.938 0.938v3.228c0 0.518 0.42 0.938 0.938 0.938z">
            </path>
            <path fill="#ff6b09" style="fill: var(--color1, #ff6b09)"
                d="M31.063 15.063h-3.228c-0.518 0-0.937 0.42-0.937 0.938s0.42 0.937 0.937 0.937h3.228c0.518 0 0.937-0.42 0.937-0.937s-0.42-0.938-0.937-0.938z">
            </path>
            <path fill="#ff6b09" style="fill: var(--color1, #ff6b09)"
                d="M5.103 16c0-0.518-0.42-0.938-0.938-0.938h-3.228c-0.518 0-0.938 0.42-0.938 0.938s0.42 0.937 0.938 0.937h3.228c0.518 0 0.938-0.42 0.938-0.937z">
            </path>
            <path fill="#ff6b09" style="fill: var(--color1, #ff6b09)"
                d="M24.368 8.569c0.24 0 0.48-0.092 0.663-0.275l2.282-2.282c0.366-0.366 0.366-0.96 0-1.326s-0.96-0.366-1.326 0l-2.282 2.282c-0.366 0.366-0.366 0.96 0 1.326 0.183 0.183 0.423 0.275 0.663 0.275z">
            </path>
            <path fill="#ff6b09" style="fill: var(--color1, #ff6b09)"
                d="M25.031 23.705c-0.366-0.366-0.96-0.366-1.326 0s-0.366 0.96 0 1.326l2.282 2.282c0.183 0.183 0.423 0.275 0.663 0.275s0.48-0.092 0.663-0.275c0.366-0.366 0.366-0.96 0-1.326l-2.282-2.282z">
            </path>
            <path fill="#ff6b09" style="fill: var(--color1, #ff6b09)"
                d="M6.969 23.705l-2.282 2.282c-0.366 0.366-0.366 0.96 0 1.326 0.183 0.183 0.423 0.275 0.663 0.275s0.48-0.092 0.663-0.275l2.282-2.282c0.366-0.366 0.366-0.96 0-1.326s-0.96-0.366-1.326 0z">
            </path>
            <path fill="#ff6b09" style="fill: var(--color1, #ff6b09)"
                d="M6.969 8.294c0.183 0.183 0.423 0.275 0.663 0.275s0.48-0.092 0.663-0.275c0.366-0.366 0.366-0.96 0-1.326l-2.282-2.282c-0.366-0.366-0.96-0.366-1.326 0s-0.366 0.96 0 1.326l2.282 2.282z">
            </path>
            <path fill="#ff6b09" style="fill: var(--color1, #ff6b09)"
                d="M20.182 5.937c0.118 0.049 0.24 0.072 0.36 0.072 0.367 0 0.716-0.217 0.866-0.578l1.239-2.981c0.199-0.478-0.028-1.027-0.506-1.226s-1.027 0.028-1.225 0.506l-1.239 2.981c-0.199 0.478 0.028 1.027 0.506 1.225z">
            </path>
            <path fill="#ff6b09" style="fill: var(--color1, #ff6b09)"
                d="M30.269 20.915l-2.98-1.239c-0.478-0.199-1.027 0.028-1.225 0.506s0.028 1.027 0.506 1.225l2.98 1.239c0.118 0.049 0.24 0.072 0.36 0.072 0.367 0 0.716-0.217 0.866-0.578 0.199-0.478-0.028-1.027-0.506-1.225z">
            </path>
            <path fill="#ff6b09" style="fill: var(--color1, #ff6b09)"
                d="M11.818 26.063c-0.478-0.199-1.027 0.028-1.226 0.506l-1.239 2.98c-0.199 0.478 0.028 1.027 0.506 1.225 0.118 0.049 0.239 0.072 0.359 0.072 0.367 0 0.716-0.217 0.866-0.578l1.239-2.98c0.199-0.478-0.028-1.027-0.506-1.225z">
            </path>
            <path fill="#ff6b09" style="fill: var(--color1, #ff6b09)"
                d="M1.731 11.085l2.98 1.239c0.118 0.049 0.239 0.072 0.359 0.072 0.367 0 0.716-0.217 0.866-0.578 0.199-0.478-0.028-1.027-0.506-1.226l-2.981-1.239c-0.478-0.199-1.027 0.028-1.226 0.506s0.028 1.027 0.506 1.226z">
            </path>
            <path fill="#ff6b09" style="fill: var(--color1, #ff6b09)"
                d="M26.073 11.841c0.149 0.362 0.499 0.58 0.867 0.58 0.119 0 0.24-0.023 0.357-0.071l2.983-1.232c0.479-0.198 0.706-0.746 0.509-1.224s-0.746-0.706-1.224-0.509l-2.984 1.232c-0.479 0.198-0.706 0.746-0.509 1.224z">
            </path>
            <path fill="#ff6b09" style="fill: var(--color1, #ff6b09)"
                d="M21.383 26.582c-0.198-0.479-0.746-0.706-1.224-0.509s-0.706 0.746-0.509 1.224l1.232 2.983c0.149 0.362 0.499 0.58 0.867 0.58 0.119 0 0.24-0.023 0.357-0.071 0.479-0.198 0.706-0.746 0.509-1.224l-1.232-2.983z">
            </path>
            <path fill="#ff6b09" style="fill: var(--color1, #ff6b09)"
                d="M5.927 20.159c-0.198-0.479-0.746-0.706-1.224-0.509l-2.983 1.232c-0.479 0.198-0.706 0.746-0.509 1.224 0.149 0.362 0.499 0.58 0.867 0.58 0.119 0 0.24-0.023 0.357-0.071l2.983-1.232c0.479-0.198 0.706-0.746 0.509-1.224z">
            </path>
            <path fill="#ff6b09" style="fill: var(--color1, #ff6b09)"
                d="M10.617 5.419c0.149 0.362 0.499 0.58 0.867 0.58 0.119 0 0.24-0.023 0.357-0.071 0.479-0.198 0.706-0.746 0.509-1.224l-1.232-2.983c-0.198-0.479-0.746-0.706-1.224-0.509s-0.706 0.746-0.509 1.224l1.232 2.983z">
            </path>
            <path fill="#ff6b09" style="fill: var(--color1, #ff6b09)"
                d="M16.937 24.637c4.351-0.469 7.75-4.163 7.75-8.637 0-4.79-3.897-8.688-8.688-8.688s-8.688 3.897-8.688 8.688c0 4.473 3.399 8.168 7.75 8.637v6.426c0 0.518 0.42 0.937 0.938 0.937s0.937-0.42 0.937-0.937v-6.426zM9.188 16c0-3.756 3.056-6.813 6.813-6.813s6.812 3.056 6.812 6.813c0 3.438-2.561 6.289-5.875 6.748v-3.578l0.212 0.212c0.366 0.366 0.96 0.366 1.326 0s0.366-0.96 0-1.326l-1.817-1.817c-0.362-0.362-0.949-0.367-1.316-0.009l-1.875 1.821c-0.371 0.361-0.38 0.954-0.019 1.326 0.184 0.189 0.428 0.284 0.672 0.284 0.235 0 0.471-0.088 0.653-0.265l0.289-0.281v3.633c-3.314-0.458-5.875-3.31-5.875-6.748z">
            </path>
        </symbol>
        <symbol id="sunset" viewBox="0 0 32 32">
            <path fill="#ff6b09" style="fill: var(--color1, #ff6b09)"
                d="M16 5.103c0.518 0 0.937-0.42 0.937-0.938v-3.228c0-0.518-0.42-0.938-0.937-0.938s-0.938 0.42-0.938 0.938v3.228c0 0.518 0.42 0.938 0.938 0.938z">
            </path>
            <path fill="#ff6b09" style="fill: var(--color1, #ff6b09)"
                d="M31.063 15.063h-3.228c-0.518 0-0.937 0.42-0.937 0.938s0.42 0.937 0.937 0.937h3.228c0.518 0 0.937-0.42 0.937-0.937s-0.42-0.938-0.937-0.938z">
            </path>
            <path fill="#ff6b09" style="fill: var(--color1, #ff6b09)"
                d="M5.103 16c0-0.518-0.42-0.938-0.938-0.938h-3.228c-0.518 0-0.938 0.42-0.938 0.938s0.42 0.937 0.938 0.937h3.228c0.518 0 0.938-0.42 0.938-0.937z">
            </path>
            <path fill="#ff6b09" style="fill: var(--color1, #ff6b09)"
                d="M24.368 8.569c0.24 0 0.48-0.092 0.663-0.275l2.282-2.282c0.366-0.366 0.366-0.96 0-1.326s-0.96-0.366-1.326 0l-2.282 2.282c-0.366 0.366-0.366 0.96 0 1.326 0.183 0.183 0.423 0.275 0.663 0.275z">
            </path>
            <path fill="#ff6b09" style="fill: var(--color1, #ff6b09)"
                d="M25.031 23.705c-0.366-0.366-0.96-0.366-1.326 0s-0.366 0.96 0 1.326l2.282 2.282c0.183 0.183 0.423 0.275 0.663 0.275s0.48-0.092 0.663-0.275c0.366-0.366 0.366-0.96 0-1.326l-2.282-2.282z">
            </path>
            <path fill="#ff6b09" style="fill: var(--color1, #ff6b09)"
                d="M6.969 23.705l-2.282 2.282c-0.366 0.366-0.366 0.96 0 1.326 0.183 0.183 0.423 0.275 0.663 0.275s0.48-0.092 0.663-0.275l2.282-2.282c0.366-0.366 0.366-0.96 0-1.326s-0.96-0.366-1.326 0z">
            </path>
            <path fill="#ff6b09" style="fill: var(--color1, #ff6b09)"
                d="M6.969 8.294c0.183 0.183 0.423 0.275 0.663 0.275s0.48-0.092 0.663-0.275c0.366-0.366 0.366-0.96 0-1.326l-2.282-2.282c-0.366-0.366-0.96-0.366-1.326 0s-0.366 0.96 0 1.326l2.282 2.282z">
            </path>
            <path fill="#ff6b09" style="fill: var(--color1, #ff6b09)"
                d="M20.182 5.937c0.118 0.049 0.24 0.072 0.36 0.072 0.367 0 0.716-0.217 0.866-0.578l1.239-2.981c0.199-0.478-0.028-1.027-0.506-1.226s-1.027 0.028-1.225 0.506l-1.239 2.981c-0.199 0.478 0.028 1.027 0.506 1.225z">
            </path>
            <path fill="#ff6b09" style="fill: var(--color1, #ff6b09)"
                d="M30.269 20.915l-2.98-1.239c-0.478-0.199-1.027 0.028-1.226 0.506s0.028 1.027 0.506 1.225l2.981 1.239c0.118 0.049 0.239 0.072 0.359 0.072 0.368 0 0.716-0.217 0.866-0.578 0.199-0.478-0.028-1.027-0.506-1.226z">
            </path>
            <path fill="#ff6b09" style="fill: var(--color1, #ff6b09)"
                d="M11.818 26.063c-0.478-0.199-1.027 0.028-1.226 0.506l-1.239 2.98c-0.199 0.478 0.028 1.027 0.506 1.226 0.118 0.049 0.239 0.072 0.359 0.072 0.367 0 0.716-0.217 0.866-0.578l1.239-2.98c0.199-0.478-0.028-1.027-0.506-1.225z">
            </path>
            <path fill="#ff6b09" style="fill: var(--color1, #ff6b09)"
                d="M1.731 11.085l2.981 1.239c0.118 0.049 0.239 0.072 0.359 0.072 0.367 0 0.716-0.217 0.866-0.578 0.199-0.478-0.028-1.027-0.506-1.226l-2.981-1.239c-0.478-0.199-1.027 0.028-1.226 0.506s0.028 1.027 0.506 1.226z">
            </path>
            <path fill="#ff6b09" style="fill: var(--color1, #ff6b09)"
                d="M26.073 11.841c0.149 0.362 0.499 0.58 0.867 0.58 0.119 0 0.24-0.023 0.357-0.071l2.983-1.232c0.479-0.198 0.706-0.746 0.509-1.224s-0.746-0.706-1.224-0.509l-2.983 1.232c-0.479 0.198-0.706 0.746-0.509 1.224z">
            </path>
            <path fill="#ff6b09" style="fill: var(--color1, #ff6b09)"
                d="M21.383 26.582c-0.198-0.479-0.746-0.706-1.224-0.509s-0.706 0.746-0.509 1.224l1.232 2.984c0.149 0.362 0.499 0.58 0.867 0.58 0.119 0 0.24-0.023 0.357-0.071 0.479-0.198 0.707-0.746 0.509-1.224l-1.232-2.983z">
            </path>
            <path fill="#ff6b09" style="fill: var(--color1, #ff6b09)"
                d="M5.927 20.158c-0.198-0.479-0.746-0.706-1.224-0.509l-2.983 1.232c-0.479 0.198-0.706 0.746-0.509 1.224 0.149 0.362 0.499 0.58 0.867 0.58 0.119 0 0.24-0.023 0.357-0.071l2.983-1.232c0.479-0.198 0.706-0.746 0.509-1.224z">
            </path>
            <path fill="#ff6b09" style="fill: var(--color1, #ff6b09)"
                d="M10.617 5.419c0.149 0.362 0.499 0.58 0.867 0.58 0.119 0 0.24-0.023 0.357-0.071 0.479-0.198 0.706-0.746 0.509-1.224l-1.232-2.983c-0.198-0.479-0.746-0.706-1.224-0.509s-0.706 0.746-0.509 1.224l1.232 2.983z">
            </path>
            <path fill="#ff6b09" style="fill: var(--color1, #ff6b09)"
                d="M17.15 28.582l-0.212 0.212v-4.158c4.351-0.469 7.75-4.163 7.75-8.637 0-4.79-3.897-8.688-8.688-8.688s-8.688 3.897-8.688 8.688c0 4.473 3.399 8.168 7.75 8.637v4.213l-0.289-0.281c-0.371-0.361-0.965-0.352-1.326 0.019s-0.352 0.965 0.019 1.326l1.875 1.822c0.182 0.177 0.418 0.265 0.653 0.265 0.24 0 0.48-0.092 0.663-0.275l1.817-1.817c0.366-0.366 0.366-0.96 0-1.326s-0.96-0.366-1.326-0zM9.188 16c0-3.756 3.056-6.812 6.813-6.812s6.812 3.056 6.812 6.812c0 3.438-2.561 6.289-5.875 6.748v-2.225c0-0.518-0.42-0.937-0.937-0.937s-0.938 0.42-0.938 0.937v2.225c-3.314-0.458-5.875-3.309-5.875-6.748z">
            </path>
        </symbol>

        <symbol id="line1" viewBox="0 0 3 32">
            <path fill="none" opacity="0.4" stroke="#fff" style="stroke: var(--color1, #fff)" stroke-linejoin="miter"
                stroke-linecap="butt" stroke-miterlimit="4" stroke-width="1.4545" d="M1.455 0v32"></path>
        </symbol>

        <symbol id="cloudy" viewBox="0 0 35 35">
            <path fill="#eee1dc" style="fill: var(--color1, #eee1dc)"
                d="M26.888 20.96c-3.317 0-11.015-2.423-14.428-5.445-1.259-1.114-1.897-2.262-1.897-3.411 0-2.55 2.075-4.625 4.625-4.625 0.437 0 0.868 0.061 1.283 0.181 0.626-1.821 2.352-3.114 4.374-3.114 1.671 0 3.199 0.909 4.013 2.325 0.131-0.011 0.262-0.017 0.393-0.017 2.55 0 4.625 2.075 4.625 4.625 0 0.3-0.028 0.596-0.085 0.886 1.349 0.831 2.21 2.324 2.21 3.944 0 1.215-0.489 2.35-1.377 3.194-0.81 0.77-1.923 1.276-3.134 1.424-0.179 0.022-0.38 0.033-0.601 0.033z">
            </path>
            <path fill="#e0d2cd" style="fill: var(--color2, #e0d2cd)"
                d="M29.79 12.366c0.056-0.29 0.085-0.586 0.085-0.886 0-2.55-2.075-4.625-4.625-4.625-0.131 0-0.263 0.006-0.393 0.017-0.743-1.292-2.079-2.161-3.576-2.304v15.323c2.204 0.673 4.264 1.070 5.607 1.070 0.22 0 0.421-0.011 0.601-0.033 1.211-0.148 2.324-0.654 3.134-1.424 0.888-0.845 1.377-1.979 1.377-3.194 0-1.619-0.861-3.113-2.21-3.944z">
            </path>
            <path fill="#fff4f4" style="fill: var(--color3, #fff4f4)"
                d="M13.321 27.454c-1.068 0-2.113-0.369-2.943-1.039-0.429-0.346-0.792-0.766-1.074-1.233-0.608 0.371-1.315 0.576-2.042 0.576-1.747 0-3.251-1.162-3.746-2.77-0.806-0.083-1.575-0.416-2.193-0.961-0.841-0.743-1.323-1.813-1.323-2.936 0-2.029 1.55-3.702 3.527-3.898 0.203-0.641 0.57-1.222 1.073-1.688 0.726-0.673 1.671-1.043 2.662-1.043 0.72 0 1.421 0.202 2.026 0.567 0.281-0.473 0.645-0.898 1.077-1.25 0.832-0.677 1.882-1.050 2.956-1.050s2.124 0.373 2.956 1.050c0.432 0.351 0.796 0.776 1.077 1.25 0.605-0.365 1.305-0.567 2.026-0.567 0.99 0 1.936 0.371 2.662 1.043 0.503 0.466 0.87 1.048 1.073 1.689 0.81 0.082 1.582 0.414 2.203 0.961 0.842 0.743 1.325 1.813 1.325 2.937s-0.482 2.193-1.324 2.936c-0.618 0.546-1.386 0.878-2.193 0.961-0.494 1.608-1.999 2.77-3.746 2.77-0.727 0-1.433-0.205-2.042-0.576-0.282 0.468-0.645 0.887-1.074 1.233-0.83 0.67-1.875 1.039-2.943 1.039z">
            </path>
            <path fill="#f6efea" style="fill: var(--color4, #f6efea)"
                d="M25.317 16.155c-0.62-0.547-1.393-0.88-2.203-0.961-0.203-0.641-0.57-1.223-1.073-1.689-0.726-0.673-1.671-1.043-2.662-1.043-0.72 0-1.421 0.202-2.026 0.567-0.281-0.473-0.645-0.898-1.077-1.25-0.832-0.677-1.882-1.050-2.956-1.050v16.725c1.068 0 2.113-0.369 2.943-1.039 0.429-0.346 0.792-0.766 1.074-1.233 0.608 0.371 1.315 0.576 2.042 0.576 1.747 0 3.251-1.162 3.746-2.77 0.806-0.083 1.575-0.416 2.193-0.961 0.841-0.743 1.324-1.813 1.324-2.936s-0.483-2.194-1.325-2.937z">
            </path>
        </symbol>

        <symbol id="quote" viewBox="0 0 35 32">
            <defs>
                <!-- Define a filter with a drop-shadow effect -->
                <filter id="glow">
                    <feGaussianBlur in="SourceAlpha" stdDeviation="2" />
                    <feOffset dx="0" dy="0" result="offsetblur" />
                    <feComponentTransfer>
                        <feFuncA type="linear" slope="0.3" />
                    </feComponentTransfer>
                    <feMerge>
                        <feMergeNode />
                        <feMergeNode in="SourceGraphic" />
                    </feMerge>
                </filter>
            </defs>
            <!-- Apply the filter to the path -->
            <path fill="#fff" style="fill: var(--color1, #fff); filter: url(#glow);" opacity="0.2"
                d="M21.593 13.843v-13.843h12.784v10.929c0 5.917-0.706 10.2-2.12 12.85-1.855 3.533-4.791 6.204-8.809 8.015l-2.914-4.637c2.429-1.016 4.217-2.539 5.365-4.57 1.148-1.987 1.788-4.901 1.921-8.743h-6.226zM1.060 13.843v-13.843h12.784v10.929c0 5.917-0.707 10.2-2.12 12.85-1.855 3.533-4.791 6.204-8.809 8.015l-2.914-4.637c2.429-1.016 4.217-2.539 5.365-4.57 1.148-1.987 1.788-4.901 1.921-8.743h-6.226z">
            </path>
        </symbol>

        <symbol id="location" viewBox="0 0 32 32">
            <path fill="none" stroke="#aeb3b9" style="stroke: var(--color1, #aeb3b9)" stroke-linejoin="miter"
                stroke-linecap="butt" stroke-miterlimit="4" stroke-width="2.9091"
                d="M27.636 16c0 6.427-5.21 11.636-11.636 11.636s-11.636-5.21-11.636-11.636c0-6.427 5.21-11.636 11.636-11.636s11.636 5.21 11.636 11.636z">
            </path>
            <path fill="#aeb3b9" style="fill: var(--color1, #aeb3b9)" d="M14.545 0h2.909v5.818h-2.909v-5.818z"></path>
            <path fill="#aeb3b9" style="fill: var(--color1, #aeb3b9)" d="M14.545 26.182h2.909v5.818h-2.909v-5.818z">
            </path>
            <path fill="#aeb3b9" style="fill: var(--color1, #aeb3b9)" d="M5.818 14.545v2.909h-5.818v-2.909h5.818z">
            </path>
            <path fill="#aeb3b9" style="fill: var(--color1, #aeb3b9)" d="M32 14.545v2.909h-5.818v-2.909h5.818z"></path>
        </symbol>

        <symbol id="star" viewBox="0 0 35 32">
            <path fill="none" stroke="#7e8691" style="stroke: var(--color1, #7e8691)" stroke-linejoin="miter"
                stroke-linecap="butt" stroke-miterlimit="4" stroke-width="1.6"
                d="M17.6 2.589l3.37 10.372h10.906l-8.823 6.411 0.18 0.553 3.191 9.82-8.823-6.411-8.823 6.411 3.37-10.372-8.823-6.411h10.906l3.37-10.372z">
            </path>
        </symbol>
        <symbol id="cloudy-and-sun" xmlns="http://www.w3.org/2000/svg" width="35" height="35" viewBox="0 0 35 35"
            fill="none">
            <g clip-path="url(#clip0_104_2)">
                <path
                    d="M21.0196 23.1929C16.8116 23.193 13.3691 19.7896 13.3303 15.5729C13.2914 11.3325 16.7096 7.85101 20.95 7.81204C20.9738 7.81184 20.9979 7.81177 21.0217 7.81177C25.2297 7.81177 28.6722 11.2152 28.7108 15.4317C28.7497 19.6721 25.3316 23.1537 21.0912 23.1926C21.0675 23.1928 21.0433 23.1929 21.0196 23.1929Z"
                    fill="#FDBF00" />
                <path
                    d="M21.0216 7.81177C21.0213 7.81177 21.0208 7.81177 21.0205 7.81177V23.1929C21.044 23.1929 21.0677 23.1928 21.0911 23.1926C25.3315 23.1537 28.7496 19.6722 28.7107 15.4318C28.6721 11.2152 25.2296 7.81177 21.0216 7.81177Z"
                    fill="#FF8856" />
                <path
                    d="M21.0505 6.35037C20.4886 6.35037 20.0305 5.89749 20.0254 5.33441L19.9999 2.55868C19.9947 1.99239 20.4495 1.52912 21.0158 1.52393H21.0255C21.5874 1.52393 22.0454 1.97681 22.0506 2.53988L22.0761 5.31562C22.0813 5.8819 21.6265 6.34518 21.0602 6.35037C21.057 6.35037 21.0538 6.35037 21.0505 6.35037Z"
                    fill="#FDBF00" />
                <path
                    d="M31.1987 16.4346C30.6368 16.4346 30.1788 15.9817 30.1736 15.4187C30.1684 14.8524 30.6232 14.3891 31.1895 14.3839L33.9653 14.3584H33.9749C34.5369 14.3584 34.9949 14.8113 35 15.3744C35.0052 15.9406 34.5504 16.4039 33.9841 16.4091L31.2084 16.4346C31.2052 16.4345 31.202 16.4346 31.1987 16.4346Z"
                    fill="#FF8856" />
                <path
                    d="M28.2748 9.26491C28.0155 9.26491 27.7561 9.16722 27.5565 8.97124C27.1524 8.57448 27.1464 7.92527 27.5432 7.5212L29.4878 5.54042C29.8847 5.13635 30.5338 5.13033 30.9379 5.52709C31.342 5.92385 31.348 6.57306 30.9512 6.97713L29.0065 8.95791C28.8058 9.16237 28.5404 9.26491 28.2748 9.26491Z"
                    fill="#FF8856" />
                <path
                    d="M13.8812 9.39709C13.622 9.39709 13.3626 9.29941 13.1629 9.10342L11.1821 7.15867C10.7781 6.76191 10.7721 6.1127 11.1688 5.70863C11.5656 5.30456 12.2148 5.29854 12.6188 5.6953L14.5996 7.64005C15.0037 8.03681 15.0097 8.68602 14.613 9.09009C14.4123 9.29455 14.1468 9.39709 13.8812 9.39709Z"
                    fill="#FDBF00" />
                <path
                    d="M24.9635 7.094C24.8353 7.094 24.7051 7.0698 24.579 7.0188C24.0541 6.80627 23.8008 6.20847 24.0134 5.68354L25.0551 3.11056C25.2675 2.58563 25.8656 2.33249 26.3903 2.54488C26.9152 2.75741 27.1685 3.35522 26.9559 3.88015L25.9142 6.45313C25.7528 6.85193 25.3688 7.094 24.9635 7.094Z"
                    fill="#FF8856" />
                <path
                    d="M33.1511 21.3899C33.023 21.3899 32.8927 21.3657 32.7667 21.3147L30.1937 20.273C29.6688 20.0605 29.4155 19.4627 29.6281 18.9377C29.8406 18.4127 30.4388 18.1596 30.9633 18.3721L33.5363 19.4137C34.0612 19.6263 34.3145 20.2241 34.1019 20.749C33.9404 21.1479 33.5565 21.3899 33.1511 21.3899Z"
                    fill="#FF8856" />
                <path
                    d="M11.7093 12.7088C11.5812 12.7088 11.4509 12.6846 11.3249 12.6336L8.75191 11.5919C8.22698 11.3793 7.97371 10.7815 8.18624 10.2566C8.39877 9.73159 8.99664 9.47846 9.5215 9.69092L12.0945 10.7326C12.6194 10.9452 12.8727 11.543 12.6602 12.0679C12.4987 12.4668 12.1147 12.7088 11.7093 12.7088Z"
                    fill="#FDBF00" />
                <path
                    d="M30.5167 12.5579C30.1172 12.5579 29.7376 12.3232 29.5721 11.9322C29.3512 11.4108 29.5948 10.8089 30.1163 10.5881L32.6723 9.50533C33.1938 9.28439 33.7956 9.5281 34.0164 10.0495C34.2373 10.571 33.9936 11.1728 33.4722 11.3937L30.9162 12.4764C30.7857 12.5317 30.65 12.5579 30.5167 12.5579Z"
                    fill="#FF8856" />
                <path
                    d="M17.1743 7.15641C16.7749 7.15641 16.3953 6.92166 16.2297 6.53071L15.1469 3.97476C14.926 3.45331 15.1697 2.85154 15.691 2.63061C16.2124 2.4096 16.8143 2.65337 17.0352 3.17475L18.118 5.7307C18.3389 6.25215 18.0952 6.85392 17.5738 7.07485C17.4433 7.13023 17.3076 7.15641 17.1743 7.15641Z"
                    fill="#FDBF00" />
                <path
                    d="M15.2441 33.476C14.0295 33.476 12.8408 33.0566 11.8971 32.2949C11.3956 31.89 10.9732 31.3975 10.649 30.8477C9.94868 31.2861 9.13028 31.5291 8.28741 31.5291C6.29269 31.5291 4.57618 30.1942 4.02527 28.3521C3.09777 28.2632 2.21225 27.8846 1.50247 27.2577C0.547627 26.4142 0 25.1996 0 23.9253C0 21.611 1.77673 19.7039 4.03785 19.4966C4.26624 18.7567 4.68645 18.0848 5.26579 17.5481C6.09007 16.7845 7.16317 16.3638 8.28741 16.3638C9.12263 16.3638 9.93426 16.6026 10.6309 17.0341C10.954 16.4775 11.3773 15.9786 11.8817 15.5683C12.8281 14.7985 14.0222 14.3745 15.2441 14.3745C16.4661 14.3745 17.6602 14.7985 18.6066 15.5683C19.111 15.9786 19.5344 16.4775 19.8574 17.034C20.5539 16.6026 21.3657 16.3638 22.2009 16.3638C23.3251 16.3638 24.3983 16.7843 25.2226 17.548C25.8021 18.0849 26.2223 18.757 26.4506 19.4972C27.382 19.5839 28.2716 19.9626 28.9844 20.5916C29.9401 21.435 30.4883 22.65 30.4883 23.9252C30.4883 25.1996 29.9407 26.4142 28.9858 27.2575C28.2761 27.8844 27.3905 28.2629 26.463 28.352C25.9121 30.1941 24.1956 31.529 22.2009 31.529C21.3579 31.529 20.5396 31.2861 19.8393 30.8475C19.5151 31.3974 19.0927 31.89 18.5912 32.2947C17.6475 33.0566 16.4588 33.476 15.2441 33.476Z"
                    fill="#FFF4F4" />
                <path
                    d="M28.9844 20.5916C28.2716 19.9625 27.382 19.5839 26.4506 19.4972C26.2223 18.757 25.802 18.0849 25.2226 17.548C24.3983 16.7844 23.3252 16.3638 22.2009 16.3638C21.3657 16.3638 20.554 16.6026 19.8574 17.034C19.5343 16.4775 19.111 15.9786 18.6066 15.5683C17.6602 14.7985 16.4661 14.3745 15.2441 14.3745V33.476C16.4588 33.476 17.6475 33.0565 18.5912 32.2948C19.0927 31.89 19.5151 31.3974 19.8393 30.8476C20.5396 31.2861 21.358 31.529 22.2009 31.529C24.1956 31.529 25.9121 30.1942 26.463 28.352C27.3904 28.263 28.2761 27.8844 28.9858 27.2576C29.9407 26.4142 30.4883 25.1996 30.4883 23.9252C30.4883 22.6501 29.9401 21.435 28.9844 20.5916Z"
                    fill="#F6EFEA" />
                <path
                    d="M22.0505 2.53964C22.0454 1.97656 21.5874 1.52368 21.0254 1.52368C21.0238 1.52368 21.0221 1.52368 21.0205 1.52368V6.34869C21.0306 6.34896 21.0404 6.35019 21.0506 6.35019H21.0602C21.6265 6.345 22.0814 5.88166 22.0761 5.31544L22.0505 2.53964Z"
                    fill="#FF8856" />
            </g>
            <defs>
                <clipPath id="clip0_104_2">
                    <rect width="35" height="35" fill="white" />
                </clipPath>
            </defs>
        </symbol>
        <symbol id="sun" xmlns="http://www.w3.org/2000/svg" width="35" height="35" viewBox="0 0 35 35"
            fill="none">
            <g clip-path="url(#clip0_104_56)">
                <path
                    d="M17.5 27.002C12.2606 27.002 7.99805 22.7394 7.99805 17.5C7.99805 12.2606 12.2606 7.99805 17.5 7.99805C22.7394 7.99805 27.002 12.2606 27.002 17.5C27.002 22.7394 22.7394 27.002 17.5 27.002Z"
                    fill="#FDBF00" />
                <path
                    d="M17.5 5.58106C16.9337 5.58106 16.4746 5.12196 16.4746 4.55567V1.02539C16.4746 0.459102 16.9337 0 17.5 0C18.0663 0 18.5254 0.459102 18.5254 1.02539V4.55567C18.5254 5.12196 18.0663 5.58106 17.5 5.58106Z"
                    fill="#FDBF00" />
                <path
                    d="M33.9746 18.5254H30.4443C29.878 18.5254 29.4189 18.0663 29.4189 17.5C29.4189 16.9337 29.878 16.4746 30.4443 16.4746H33.9746C34.5409 16.4746 35 16.9337 35 17.5C35 18.0663 34.5409 18.5254 33.9746 18.5254Z"
                    fill="#FF8856" />
                <path
                    d="M17.5 35C16.9337 35 16.4746 34.5409 16.4746 33.9746V30.4443C16.4746 29.878 16.9337 29.4189 17.5 29.4189C18.0663 29.4189 18.5254 29.878 18.5254 30.4443V33.9746C18.5254 34.5409 18.0663 35 17.5 35Z"
                    fill="#FDBF00" />
                <path
                    d="M4.55567 18.5254H1.02539C0.459102 18.5254 0 18.0663 0 17.5C0 16.9337 0.459102 16.4746 1.02539 16.4746H4.55567C5.12196 16.4746 5.58106 16.9337 5.58106 17.5C5.58106 18.0663 5.12196 18.5254 4.55567 18.5254Z"
                    fill="#FDBF00" />
                <path
                    d="M26.6531 9.37253C26.3906 9.37253 26.1282 9.27246 25.9281 9.07216C25.5276 8.67178 25.5276 8.02251 25.9281 7.62206L28.4243 5.12578C28.8247 4.72533 29.474 4.72533 29.8745 5.12578C30.2749 5.52616 30.2749 6.17543 29.8745 6.57588L27.3782 9.07216C27.1779 9.27246 26.9155 9.37253 26.6531 9.37253Z"
                    fill="#FF8856" />
                <path
                    d="M29.1493 30.1747C28.8869 30.1747 28.6245 30.0746 28.4243 29.8744L25.928 27.3781C25.5275 26.9777 25.5275 26.3284 25.928 25.928C26.3283 25.5276 26.9776 25.5275 27.3781 25.928L29.8744 28.4243C30.2748 28.8247 30.2748 29.4739 29.8744 29.8744C29.6742 30.0745 29.4117 30.1747 29.1493 30.1747Z"
                    fill="#FF8856" />
                <path
                    d="M5.85064 30.1748C5.58821 30.1748 5.32578 30.0747 5.12562 29.8744C4.72517 29.474 4.72517 28.8248 5.12562 28.4243L7.6219 25.928C8.02228 25.5276 8.67156 25.5276 9.07201 25.928C9.47246 26.3284 9.47246 26.9777 9.07201 27.3781L6.57573 29.8744C6.37551 30.0746 6.11307 30.1748 5.85064 30.1748Z"
                    fill="#FDBF00" />
                <path
                    d="M8.34689 9.37253C8.08446 9.37253 7.82203 9.27246 7.62188 9.07216L5.12553 6.57588C4.72508 6.1755 4.72508 5.52623 5.12553 5.12578C5.52591 4.72533 6.17519 4.72533 6.57564 5.12578L9.07198 7.62206C9.47243 8.02244 9.47243 8.67171 9.07198 9.07216C8.87176 9.27246 8.60932 9.37253 8.34689 9.37253Z"
                    fill="#FDBF00" />
                <path
                    d="M22.4672 6.57266C22.336 6.57266 22.2028 6.54737 22.0741 6.49391C21.5512 6.2766 21.3034 5.67647 21.5207 5.15352L22.8754 1.8936C23.0929 1.37058 23.693 1.12298 24.2158 1.34023C24.7387 1.55755 24.9865 2.15767 24.7692 2.68062L23.4145 5.94054C23.2506 6.33477 22.8691 6.57266 22.4672 6.57266Z"
                    fill="#FF8856" />
                <path
                    d="M32.7128 24.8482C32.5816 24.8482 32.4484 24.8229 32.3196 24.7694L29.0597 23.4147C28.5368 23.1974 28.2891 22.5972 28.5063 22.0743C28.7237 21.5513 29.3237 21.3036 29.8467 21.5209L33.1067 22.8757C33.6296 23.093 33.8773 23.6931 33.6601 24.2161C33.4962 24.6103 33.1147 24.8482 32.7128 24.8482Z"
                    fill="#FF8856" />
                <path
                    d="M11.1773 33.7387C11.0461 33.7387 10.9129 33.7134 10.7841 33.6599C10.2613 33.4426 10.0135 32.8425 10.2308 32.3195L11.5855 29.0596C11.8029 28.5366 12.4029 28.289 12.9259 28.5062C13.4488 28.7236 13.6965 29.3237 13.4793 29.8466L12.1245 33.1066C11.9607 33.5008 11.5792 33.7387 11.1773 33.7387Z"
                    fill="#FDBF00" />
                <path
                    d="M5.5464 13.5581C5.41522 13.5581 5.28199 13.5328 5.15327 13.4793L1.89334 12.1246C1.37039 11.9073 1.12266 11.3071 1.33991 10.7842C1.55729 10.2612 2.15735 10.0136 2.6803 10.2308L5.94022 11.5856C6.4631 11.8029 6.71083 12.403 6.49359 12.926C6.3298 13.3202 5.94828 13.5581 5.5464 13.5581Z"
                    fill="#FDBF00" />
                <path
                    d="M29.4652 13.5857C29.0624 13.5857 28.6803 13.3468 28.517 12.9514C28.3009 12.4279 28.5501 11.8284 29.0736 11.6123L32.3366 10.2651C32.8599 10.049 33.4596 10.2981 33.6757 10.8216C33.8918 11.3451 33.6427 11.9446 33.1192 12.1607L29.8561 13.5079C29.7281 13.5607 29.5956 13.5857 29.4652 13.5857Z"
                    fill="#FF8856" />
                <path
                    d="M23.7871 33.7537C23.3843 33.7537 23.0022 33.5148 22.8389 33.1193L21.4918 29.8562C21.2757 29.3327 21.5248 28.7332 22.0483 28.5171C22.5717 28.301 23.1714 28.5501 23.3874 29.0736L24.7346 32.3367C24.9507 32.8601 24.7016 33.4597 24.178 33.6758C24.05 33.7287 23.9175 33.7537 23.7871 33.7537Z"
                    fill="#FF8856" />
                <path
                    d="M2.2724 24.8123C1.86949 24.8123 1.4875 24.5734 1.32419 24.178C1.1081 23.6545 1.35727 23.055 1.88077 22.8389L5.1439 21.4917C5.66754 21.2755 6.26691 21.5248 6.483 22.0482C6.69908 22.5717 6.44991 23.1712 5.92641 23.3873L2.66328 24.7345C2.53531 24.7873 2.40269 24.8123 2.2724 24.8123Z"
                    fill="#FDBF00" />
                <path
                    d="M12.5608 6.56104C12.158 6.56104 11.7759 6.32213 11.6126 5.92667L10.2655 2.66353C10.0494 2.14011 10.2985 1.54053 10.8221 1.32444C11.3454 1.10836 11.945 1.35746 12.1612 1.88096L13.5083 5.14409C13.7244 5.66759 13.4753 6.2671 12.9517 6.48318C12.8238 6.53596 12.6912 6.56104 12.5608 6.56104Z"
                    fill="#FDBF00" />
                <path
                    d="M17.5 0V5.58106C18.0663 5.58106 18.5254 5.12196 18.5254 4.55567V1.02539C18.5254 0.459102 18.0663 0 17.5 0Z"
                    fill="#FF8856" />
                <path
                    d="M17.5 7.99805V27.002C22.7394 27.002 27.002 22.7394 27.002 17.5C27.002 12.2606 22.7394 7.99805 17.5 7.99805Z"
                    fill="#FF8856" />
                <path
                    d="M17.5 29.4189V35C18.0663 35 18.5254 34.5409 18.5254 33.9746V30.4443C18.5254 29.878 18.0663 29.4189 17.5 29.4189Z"
                    fill="#FF8856" />
            </g>
            <defs>
                <clipPath id="clip0_104_56">
                    <rect width="35" height="35" fill="white" />
                </clipPath>
            </defs>
        </symbol>
        <symbol id="barometer" xmlns="http://www.w3.org/2000/svg" width="20" height="20" viewBox="0 0 20 20"
            fill="none">
            <path
                d="M11.5555 2.57531C11.6844 2.33094 11.7578 2.05285 11.7578 1.75781C11.7578 0.788555 10.9693 0 10 0C9.03076 0 8.2422 0.788555 8.2422 1.75781C8.2422 2.05285 8.3156 2.33094 8.44459 2.57531C4.34185 3.31164 1.21869 6.9073 1.21869 11.2187C1.21869 16.0607 5.15799 20 10 20C14.842 20 18.7813 16.0607 18.7813 11.2187C18.7813 6.9073 15.6582 3.31168 11.5555 2.57531ZM10 1.17188C10.3231 1.17188 10.586 1.43473 10.586 1.75781C10.586 2.0809 10.3231 2.34375 10 2.34375C9.67693 2.34375 9.41408 2.0809 9.41408 1.75781C9.41408 1.43473 9.67693 1.17188 10 1.17188ZM10 18.8281C5.80416 18.8281 2.39056 15.4145 2.39056 11.2187C2.39056 7.02281 5.80416 3.60922 10 3.60922C14.1959 3.60922 17.6095 7.02281 17.6095 11.2187C17.6095 15.4145 14.1959 18.8281 10 18.8281Z"
                fill="white" fill-opacity="0.54" />
            <path
                d="M14.5826 6.68113C14.5744 6.67184 14.5664 6.66234 14.5575 6.65344C14.5481 6.64402 14.5382 6.63563 14.5283 6.62699C13.3622 5.47688 11.7622 4.76562 10 4.76562C8.23032 4.76562 6.62489 5.48188 5.45789 6.63953C5.45282 6.64426 5.44747 6.64848 5.44254 6.65344C5.4384 6.65758 5.43493 6.66207 5.43094 6.66625C4.26735 7.83406 3.547 9.44379 3.547 11.2187C3.547 11.5423 3.80934 11.8046 4.13293 11.8046H4.797C5.12059 11.8046 5.38293 11.5423 5.38293 11.2187C5.38293 10.8951 5.12059 10.6327 4.797 10.6327H4.75157C4.86465 9.61309 5.26911 8.68016 5.87969 7.91922L5.91211 7.95164C6.02653 8.06605 6.17649 8.12328 6.32641 8.12328C6.47633 8.12328 6.62633 8.06609 6.74071 7.95164C6.96954 7.72281 6.96954 7.35184 6.74071 7.12301L6.70915 7.09145C7.46856 6.48469 8.39829 6.08289 9.41411 5.97023V6.01562C9.41411 6.33922 9.67645 6.60156 10 6.60156C10.3236 6.60156 10.586 6.33922 10.586 6.01562V5.97023C11.6014 6.08297 12.5311 6.48496 13.2905 7.09184L13.2594 7.12297C13.0306 7.3518 13.0306 7.72277 13.2594 7.9516C13.3738 8.06602 13.5238 8.12324 13.6737 8.12324C13.8236 8.12324 13.9736 8.06605 14.088 7.9516L14.12 7.91961C14.7291 8.67863 15.1332 9.60867 15.2476 10.625H15.1954C14.8718 10.625 14.6094 10.8873 14.6094 11.2109C14.6094 11.5345 14.8718 11.7969 15.1954 11.7969C15.1954 11.7969 15.8677 11.7968 15.8679 11.7968C16.1915 11.7964 16.4535 11.5337 16.4531 11.2101C16.4507 9.44629 15.7361 7.84598 14.5826 6.68113Z"
                fill="white" fill-opacity="0.54" />
            <path
                d="M12.6571 8.56151C12.4283 8.33269 12.0573 8.33269 11.8285 8.56151L9.38164 11.0084C9.11074 10.8789 8.80836 10.8192 8.50207 10.8407C8.17925 10.8632 7.93582 11.1432 7.95836 11.466C7.9809 11.7888 8.26058 12.0324 8.58367 12.0097C8.75293 11.9978 8.91879 12.0599 9.03875 12.1799C9.15687 12.298 9.21906 12.4614 9.20937 12.6282C9.19062 12.9512 9.4373 13.2283 9.76035 13.2471C9.77191 13.2478 9.78339 13.2481 9.79484 13.2481C10.1029 13.248 10.3612 13.0076 10.3793 12.6961C10.3966 12.3972 10.3364 12.1021 10.2101 11.8373L12.6571 9.39019C12.8859 9.16132 12.8859 8.79034 12.6571 8.56151Z"
                fill="white" fill-opacity="0.54" />
            <path
                d="M13.3594 15.4297H6.64062C6.31703 15.4297 6.05469 15.692 6.05469 16.0156C6.05469 16.3392 6.31703 16.6016 6.64062 16.6016H13.3594C13.683 16.6016 13.9453 16.3392 13.9453 16.0156C13.9453 15.692 13.683 15.4297 13.3594 15.4297Z"
                fill="white" fill-opacity="0.54" />
        </symbol>
        <symbol id="humidity" xmlns="http://www.w3.org/2000/svg" width="20" height="20" viewBox="0 0 20 20" fill="none">
            <g clip-path="url(#clip0_103_566)">
                <path fill-rule="evenodd" clip-rule="evenodd"
                    d="M17.8876 5.87409C17.5147 5.23588 17.1161 4.63252 16.7652 4.17506C16.2479 3.50068 15.9423 3.26165 15.5975 3.26165C15.2707 3.26165 15.0049 3.49056 14.7064 3.83427C14.4866 4.08736 14.2246 4.4383 13.9488 4.849C13.5535 5.43756 13.1739 6.07944 12.8494 6.70225C12.5018 6.03577 12.1768 5.46139 11.9365 5.05018C11.1847 3.76353 10.3829 2.54946 9.67869 1.63153C8.52388 0.126094 8.0897 0 7.77341 0C7.45711 0 7.02293 0.126094 5.86805 1.63157C5.1639 2.5495 4.36206 3.76357 3.61026 5.05022C2.70678 6.59635 0.605408 10.4497 0.605408 12.832C0.605408 16.7845 3.82097 20 7.77341 20C11.4819 20 14.5414 17.1692 14.9051 13.5551C15.1324 13.597 15.3638 13.6189 15.5976 13.6189C17.6912 13.6189 19.3945 11.9156 19.3945 9.82191C19.3945 8.63074 18.4504 6.83718 17.8876 5.87409ZM7.77341 18.8281C4.46714 18.8281 1.77729 16.1383 1.77729 12.832C1.77729 11.4363 2.77702 8.85824 4.45159 5.93592C5.94633 3.32751 7.27899 1.65028 7.77341 1.23668C8.26782 1.65028 9.60044 3.32747 11.0952 5.93592C12.7698 8.85828 13.7695 11.4363 13.7695 12.832C13.7695 16.1383 11.0797 18.8281 7.77341 18.8281ZM15.5976 12.447C15.3656 12.447 15.1373 12.4166 14.9163 12.3574C14.7872 11.0661 14.1754 9.46101 13.5066 8.02948C14.1582 6.5744 15.1249 5.14057 15.597 4.59349C15.8952 4.93717 16.4233 5.66143 17.0107 6.69995C17.7696 8.04167 18.2227 9.20875 18.2227 9.82191C18.2227 11.2693 17.045 12.447 15.5976 12.447Z"
                    fill="white" fill-opacity="0.54" />
                <path fill-rule="evenodd" clip-rule="evenodd"
                    d="M9.38205 10.0454C9.10178 9.88353 8.74346 9.97966 8.58166 10.2599L5.95018 14.8178C5.78838 15.0981 5.8844 15.4564 6.16463 15.6182C6.2569 15.6715 6.35764 15.6968 6.45705 15.6968C6.65955 15.6968 6.85651 15.5917 6.96502 15.4037L9.59651 10.8458C9.7583 10.5656 9.66229 10.2072 9.38205 10.0454Z"
                    fill="white" fill-opacity="0.54" />
                <path fill-rule="evenodd" clip-rule="evenodd"
                    d="M6.30859 11.2109C6.30859 10.8882 6.04539 10.625 5.72266 10.625C5.39992 10.625 5.13672 10.8882 5.13672 11.2109C5.13672 11.5337 5.39996 11.7969 5.72266 11.7969C6.04535 11.7969 6.30859 11.5337 6.30859 11.2109Z"
                    fill="white" fill-opacity="0.54" />
                <path fill-rule="evenodd" clip-rule="evenodd"
                    d="M9.6289 13.9453C9.30617 13.9453 9.04297 14.2085 9.04297 14.5312C9.04297 14.854 9.30621 15.1172 9.6289 15.1172C9.95163 15.1172 10.2148 14.8539 10.2148 14.5312C10.2148 14.2085 9.9516 13.9453 9.6289 13.9453Z"
                    fill="white" fill-opacity="0.54" />
            </g>
            <defs>
                <clipPath id="clip0_103_566">
                    <rect width="20" height="20" fill="white" />
                </clipPath>
            </defs>
        </symbol>
        <symbol id="wind" xmlns="http://www.w3.org/2000/svg" width="20" height="20" viewBox="0 0 20 20" fill="none">
            <path
                d="M15.8223 1.6521C14.8747 1.6521 13.9458 1.97882 13.2069 2.57206C12.9546 2.77468 12.9143 3.14343 13.1168 3.39577C13.3194 3.64808 13.6882 3.68847 13.9406 3.48585C14.4722 3.05901 15.1405 2.82397 15.8223 2.82397C17.4797 2.82397 18.8281 4.17237 18.8281 5.8298C18.8281 7.48722 17.4797 8.83562 15.8223 8.83562H4.80463C4.48103 8.83562 4.21869 9.09796 4.21869 9.42155C4.21869 9.74515 4.48103 10.0075 4.80463 10.0075H15.8223C18.1259 10.0075 20 8.13339 20 5.8298C20 3.5262 18.1258 1.6521 15.8223 1.6521Z"
                fill="white" fill-opacity="0.54" />
            <path
                d="M3.68213 7.66772H9.94139C10.265 7.66772 10.5273 7.40538 10.5273 7.08179C10.5273 6.75819 10.265 6.49585 9.94139 6.49585H3.68213C3.35854 6.49585 3.09619 6.75819 3.09619 7.08179C3.09619 7.40538 3.35854 7.66772 3.68213 7.66772Z"
                fill="white" fill-opacity="0.54" />
            <path
                d="M9.77715 11.1833H0.585938C0.262344 11.1833 0 11.4457 0 11.7693C0 12.0929 0.262344 12.3552 0.585938 12.3552H9.77715C11.1062 12.3552 12.1876 13.4365 12.1876 14.7656C12.1876 16.0947 11.1062 17.176 9.77715 17.176C9.23039 17.176 8.69453 16.9875 8.26816 16.6452C8.01586 16.4426 7.64707 16.483 7.44445 16.7353C7.24184 16.9876 7.28219 17.3564 7.53453 17.559C8.16816 18.0677 8.96461 18.3478 9.77715 18.3478C11.7524 18.3478 13.3595 16.7408 13.3595 14.7656C13.3595 12.7903 11.7524 11.1833 9.77715 11.1833Z"
                fill="white" fill-opacity="0.54" />
            <path
                d="M0.585938 7.66772H1.37637C1.69996 7.66772 1.9623 7.40538 1.9623 7.08179C1.9623 6.75819 1.69996 6.49585 1.37637 6.49585H0.585938C0.262344 6.49585 0 6.75819 0 7.08179C0 7.40538 0.262344 7.66772 0.585938 7.66772Z"
                fill="white" fill-opacity="0.54" />
            <path
                d="M7.65625 14.1016C7.65625 13.778 7.39391 13.5156 7.07031 13.5156H3.55469C3.23109 13.5156 2.96875 13.778 2.96875 14.1016C2.96875 14.4252 3.23109 14.6875 3.55469 14.6875H7.07031C7.39395 14.6875 7.65625 14.4252 7.65625 14.1016Z"
                fill="white" fill-opacity="0.54" />
        </symbol>
        <!-- Arrow Down -->
        <symbol id="arrow-down" xmlns="http://www.w3.org/2000/svg" width="28" height="28" viewBox="0 0 28 28" fill="none">
            <circle cx="14" cy="14" r="14" fill="white" fill-opacity="0.2"/>
            <path d="M10 12L14 16L18 12" stroke="white" stroke-width="1.5"/>
        </symbol>
        <!-- Arrow Up -->
        <symbol id="arrow-up" xmlns="http://www.w3.org/2000/svg" width="28" height="28" viewBox="0 0 28 28" fill="none">
            <circle cx="14" cy="14" r="14" fill="white" fill-opacity="0.2"/>
            <path d="M10 16L14 12L18 16" stroke="white" stroke-width="1.5"/>
        </symbol>
    </defs>
</svg>